<?xml version="1.0" encoding="utf-8"?>
<!-- Generator: Adobe Illustrator 25.0.1, SVG Export Plug-In . SVG Version: 6.00 Build 0)  -->
<svg version="1.1" xmlns="http://www.w3.org/2000/svg" xmlns:xlink="http://www.w3.org/1999/xlink" x="0px" y="0px"
	 viewBox="0 0 500 500" style="enable-background:new 0 0 500 500;" xml:space="preserve">
<style type="text/css">
	.st0{opacity:0.2;fill:#F8AB74;}
	.st1{fill:#91C4FB;}
	.st2{fill:#E4E7FF;}
	.st3{fill:#7371FC;}
	.st4{fill:#443DC3;}
	.st5{fill:#FE814B;}
	.st6{fill:none;stroke:#E4E7FF;stroke-width:0.5;stroke-miterlimit:10;}
	.st7{fill:#32338C;}
	.st8{fill:none;stroke:#32338C;stroke-miterlimit:10;}
	.st9{fill:none;stroke:#32338C;stroke-width:2;stroke-miterlimit:10;}
	.st10{fill:none;stroke:#32338C;stroke-width:2.3628;stroke-miterlimit:10;}
	.st11{fill:#FE5228;}
	.st12{fill:#D0CDFF;}
	.st13{fill:#FEC5B7;}
	.st14{fill:#7355FC;}
	.st15{fill:#32328C;}
	.st16{opacity:0.4;fill:#F8AB74;}
	.st17{fill:#F8AB74;}
</style>
<g id="BACKGROUND">
	<path class="st0" d="M73.92,392.89C7.78,331.46,16.08,227.76,46.97,192.97c30.89-34.79,83.7-58.16,108.8-97.51
		c25.11-39.35,55.87-69.04,119.89-57.88c64.02,11.16,68.8,59.33,90.88,86.87c22.08,27.53,106.73,34.32,111.09,111.2
		c4.36,76.88-48.14,82.98-69.84,104.63c-21.7,21.65-48.9,114.92-124.34,124.82C191.01,477.23,129.9,444.89,73.92,392.89z"/>
</g>
<g id="OBJECTS">
	<g>
		<g>
			<rect x="54.88" y="99.2" class="st1" width="337.83" height="337.83"/>
			<rect x="54.88" y="82.23" class="st2" width="337.83" height="337.83"/>
			<rect x="54.88" y="82.23" class="st3" width="337.83" height="58.82"/>
			<g>
				<circle class="st4" cx="85.73" cy="104.8" r="10.85"/>
				<path class="st5" d="M85.73,108.78L85.73,108.78c-2.72,0-4.93-2.21-4.93-4.93V56.54c0-2.72,2.21-4.93,4.93-4.93l0,0
					c2.72,0,4.93,2.21,4.93,4.93v47.31C90.66,106.58,88.45,108.78,85.73,108.78z"/>
			</g>
			<g>
				<circle class="st4" cx="120.25" cy="104.8" r="10.85"/>
				<path class="st5" d="M120.25,108.78L120.25,108.78c-2.72,0-4.93-2.21-4.93-4.93V56.54c0-2.72,2.21-4.93,4.93-4.93l0,0
					c2.72,0,4.93,2.21,4.93,4.93v47.31C125.17,106.58,122.97,108.78,120.25,108.78z"/>
			</g>
			<g>
				<circle class="st4" cx="154.76" cy="104.8" r="10.85"/>
				<path class="st5" d="M154.76,108.78L154.76,108.78c-2.72,0-4.93-2.21-4.93-4.93V56.54c0-2.72,2.21-4.93,4.93-4.93l0,0
					c2.72,0,4.93,2.21,4.93,4.93v47.31C159.69,106.58,157.48,108.78,154.76,108.78z"/>
			</g>
			<g>
				<circle class="st4" cx="189.28" cy="104.8" r="10.85"/>
				<path class="st5" d="M189.28,108.78L189.28,108.78c-2.72,0-4.93-2.21-4.93-4.93V56.54c0-2.72,2.21-4.93,4.93-4.93l0,0
					c2.72,0,4.93,2.21,4.93,4.93v47.31C194.21,106.58,192,108.78,189.28,108.78z"/>
			</g>
			<g>
				<circle class="st4" cx="223.79" cy="104.8" r="10.85"/>
				<path class="st5" d="M223.79,108.78L223.79,108.78c-2.72,0-4.93-2.21-4.93-4.93V56.54c0-2.72,2.21-4.93,4.93-4.93l0,0
					c2.72,0,4.93,2.21,4.93,4.93v47.31C228.72,106.58,226.52,108.78,223.79,108.78z"/>
			</g>
			<g>
				<circle class="st4" cx="258.31" cy="104.8" r="10.85"/>
				<path class="st5" d="M258.31,108.78L258.31,108.78c-2.72,0-4.93-2.21-4.93-4.93V56.54c0-2.72,2.21-4.93,4.93-4.93l0,0
					c2.72,0,4.93,2.21,4.93,4.93v47.31C263.24,106.58,261.03,108.78,258.31,108.78z"/>
			</g>
			<g>
				<circle class="st4" cx="292.83" cy="104.8" r="10.85"/>
				<path class="st5" d="M292.83,108.78L292.83,108.78c-2.72,0-4.93-2.21-4.93-4.93V56.54c0-2.72,2.21-4.93,4.93-4.93l0,0
					c2.72,0,4.93,2.21,4.93,4.93v47.31C297.76,106.58,295.55,108.78,292.83,108.78z"/>
			</g>
			<g>
				<circle class="st4" cx="327.34" cy="104.8" r="10.85"/>
				<path class="st5" d="M327.34,108.78L327.34,108.78c-2.72,0-4.93-2.21-4.93-4.93V56.54c0-2.72,2.21-4.93,4.93-4.93l0,0
					c2.72,0,4.93,2.21,4.93,4.93v47.31C332.27,106.58,330.06,108.78,327.34,108.78z"/>
			</g>
			<g>
				<circle class="st4" cx="361.86" cy="104.8" r="10.85"/>
				<path class="st5" d="M361.86,108.78L361.86,108.78c-2.72,0-4.93-2.21-4.93-4.93V56.54c0-2.72,2.21-4.93,4.93-4.93l0,0
					c2.72,0,4.93,2.21,4.93,4.93v47.31C366.79,106.58,364.58,108.78,361.86,108.78z"/>
			</g>
			<rect x="74.88" y="192.91" class="st2" width="36.29" height="36.29"/>
			<rect x="118.86" y="192.91" class="st2" width="36.29" height="36.29"/>
			<rect x="162.83" y="192.91" class="st2" width="36.29" height="36.29"/>
			<rect x="206.81" y="192.91" class="st2" width="36.29" height="36.29"/>
			<rect x="250.78" y="192.91" class="st2" width="36.29" height="36.29"/>
			<rect x="294.76" y="192.91" class="st2" width="36.29" height="36.29"/>
			<rect x="338.74" y="192.91" class="st2" width="36.29" height="36.29"/>
			<rect x="74.88" y="237.28" class="st2" width="36.29" height="36.29"/>
			<rect x="118.86" y="237.28" class="st2" width="36.29" height="36.29"/>
			<rect x="162.83" y="237.28" class="st2" width="36.29" height="36.29"/>
			<rect x="206.81" y="237.28" class="st2" width="36.29" height="36.29"/>
			<rect x="250.78" y="237.28" class="st2" width="36.29" height="36.29"/>
			<rect x="294.76" y="237.28" class="st2" width="36.29" height="36.29"/>
			<rect x="338.74" y="237.28" class="st2" width="36.29" height="36.29"/>
			<rect x="74.88" y="281.66" class="st2" width="36.29" height="36.29"/>
			<rect x="118.86" y="281.66" class="st2" width="36.29" height="36.29"/>
			<rect x="162.83" y="281.66" class="st2" width="36.29" height="36.29"/>
			<rect x="206.81" y="281.66" class="st2" width="36.29" height="36.29"/>
			<rect x="250.78" y="281.66" class="st2" width="36.29" height="36.29"/>
			<rect x="294.76" y="281.66" class="st2" width="36.29" height="36.29"/>
			<rect x="338.74" y="281.66" class="st2" width="36.29" height="36.29"/>
			<rect x="74.88" y="326.03" class="st2" width="36.29" height="36.29"/>
			<rect x="118.86" y="326.03" class="st2" width="36.29" height="36.29"/>
			<rect x="162.83" y="326.03" class="st2" width="36.29" height="36.29"/>
			<rect x="206.81" y="326.03" class="st2" width="36.29" height="36.29"/>
			<rect x="250.78" y="326.03" class="st2" width="36.29" height="36.29"/>
			<rect x="294.76" y="326.03" class="st2" width="36.29" height="36.29"/>
			<rect x="338.74" y="326.03" class="st2" width="36.29" height="36.29"/>
			<g>
				<rect x="162.83" y="158.68" class="st2" width="212.19" height="3.98"/>
				<rect x="162.83" y="166.68" class="st2" width="212.19" height="3.98"/>
				<rect x="162.83" y="174.68" class="st2" width="212.19" height="3.98"/>
			</g>
			<g>
				<rect x="74.88" y="376.55" class="st2" width="300.15" height="3.98"/>
				<rect x="74.88" y="384.55" class="st2" width="300.15" height="3.98"/>
				<rect x="74.88" y="392.55" class="st2" width="300.15" height="3.98"/>
			</g>
			<rect x="77.37" y="158.68" class="st5" width="77.78" height="19.98"/>
			<g>
				<line class="st6" x1="54.88" y1="422.71" x2="392.47" y2="422.71"/>
				<line class="st6" x1="54.88" y1="426.54" x2="392.47" y2="426.54"/>
				<line class="st6" x1="54.88" y1="430.38" x2="392.47" y2="430.38"/>
				<line class="st6" x1="54.88" y1="434.21" x2="392.47" y2="434.21"/>
			</g>
		</g>
		<g>
			<g>
				<path class="st7" d="M172.24,196.88c1,1.9,2.08,3.73,3.18,5.56l3.29,5.47l6.58,10.92l-3.67,0.02
					c3.63-7.82,7.64-15.43,12.03-22.84c2.2-3.7,4.48-7.36,6.94-10.91c2.44-3.56,5.01-7.06,7.89-10.34c-1.6,4.06-3.32,8-5.12,11.91
					c-1.79,3.91-3.67,7.77-5.61,11.6c-3.89,7.65-8.03,15.17-12.44,22.53l-2.03,3.39l-1.64-3.37c-0.94-1.94-1.85-3.87-2.73-5.82
					c-0.88-1.95-1.71-3.93-2.54-5.91c-0.83-1.98-1.57-4-2.31-6.02C173.34,201.05,172.66,198.99,172.24,196.88z"/>
			</g>
			<g>
				<path class="st5" d="M170.57,287.24c1,1.9,2.08,3.73,3.18,5.56l3.29,5.47l6.58,10.92l-3.67,0.02
					c3.63-7.82,7.64-15.43,12.03-22.84c2.2-3.7,4.49-7.36,6.94-10.91c2.44-3.56,5.01-7.06,7.89-10.34c-1.6,4.06-3.32,8-5.12,11.91
					c-1.79,3.91-3.67,7.77-5.61,11.6c-3.89,7.65-8.03,15.17-12.44,22.53l-2.03,3.39l-1.64-3.37c-0.94-1.94-1.85-3.87-2.73-5.82
					c-0.88-1.95-1.71-3.93-2.54-5.91c-0.83-1.98-1.57-4-2.31-6.02C171.67,291.41,170.99,289.35,170.57,287.24z"/>
			</g>
			<g>
				<path class="st3" d="M83.4,319.05c3.23,3.97,6.1,8.02,8.91,12.12c2.8,4.09,5.51,8.23,8.17,12.38
					c5.33,8.3,10.48,16.69,15.77,24.98c-6.28-7.58-12.42-15.29-18.7-22.84c-3.14-3.77-6.31-7.52-9.54-11.18
					c-3.23-3.65-6.53-7.25-9.94-10.53L83.4,319.05z"/>
			</g>
			<g>
				<path class="st3" d="M84.45,355.72c4.56-8.35,9.49-16.47,14.81-24.28c2.66-3.91,5.4-7.75,8.24-11.52
					c2.83-3.77,5.79-7.42,8.71-11.1c-2.42,4.03-4.88,8.03-7.19,12.1c-2.31,4.07-4.52,8.2-6.63,12.36
					c-4.22,8.33-7.99,16.85-11.35,25.5L84.45,355.72z"/>
			</g>
			<g>
				<path class="st8" d="M139.78,232.37c-5.86-1.78-12.49-0.04-17.19,3.89c-4.7,3.93-7.52,9.82-8.39,15.88
					c-0.56,3.91-0.32,8.03,1.35,11.62c2.86,6.15,9.44,9.78,16.05,11.33c8.15,1.91,17.45,0.97,23.71-4.58
					c6.25-5.55,8.27-14.99,5.91-23.01c-1.9-6.42-6.68-12.22-13.09-14.15c-2.93-0.88-6.05-0.95-9.09-0.62
					c-6.66,0.72-13.23,3.4-17.93,8.17c-4.7,4.77-7.31,11.75-6.12,18.34c0.67,3.69,2.47,7.13,4.94,9.96
					c7.73,8.87,22.3,10.73,32.01,4.08c9.71-6.65,13.24-20.91,7.76-31.32c-2.68-5.09-7.59-9.32-13.32-9.75
					c-4.33-0.33-8.92,1.45-12.91-0.26"/>
				<polygon class="st7" points="133.64,265.12 134.97,243.76 150.51,262.49 124.99,254.44 150.51,246.6 				"/>
				<path class="st9" d="M136.95,275.77c-2.28,17.91,4.45,36.51,16.85,49.64c12.4,13.13,30.07,20.82,48.08,22.17
					c18.01,1.35,35.74-3.19,51.41-12.16"/>
				<path class="st10" d="M237.16,332.83c5.34,1.03,16.13,2.41,16.13,2.41l-8.07,12.57"/>
			</g>
		</g>
	</g>
	<g>
		<path class="st7" d="M322.71,500h44.66l-1.66-65.68L384.82,500h52.28c-2.63-30.98-6.06-65.67-9.65-86.88
			c-7.69-45.46-25-54.53-25-54.53l-63.05-2.09c0,0-23.33,31.16-22.34,73.11C317.48,447.38,319.98,474.57,322.71,500z"/>
		<g>
			<path class="st11" d="M321.92,306.2c-3.74-0.52-7.54-0.7-11.31-0.5c-0.9,0.05-1.85,0.13-2.62,0.59
				c-1.26,0.76-1.77,2.33-1.97,3.79c-0.5,3.8,0.49,7.62,1.64,11.27c0.25,0.78,0.51,1.57,0.78,2.35c2.34-0.93,4.52-2.28,6.36-3.99
				C318.59,316.17,320.97,311.31,321.92,306.2z"/>
			<path class="st5" d="M357.37,260.06c-0.34-1.38-1.14-4.78-2.73-5.25c-1.36-0.41-4.05,1.61-5.15,2.28
				c-7.42,4.5-12.99,11.64-16.78,19.36c-4.61,9.4-6.84,19.76-9.03,30.01c-0.59-0.1-1.18-0.17-1.77-0.25
				c-0.95,5.11-3.33,9.97-7.13,13.5c-1.84,1.71-4.02,3.07-6.36,3.99c4.82,14.06,13.09,27.59,26.22,34.36
				c2.16,1.11,4.84,2.01,6.93,0.78c2.15-1.26,2.63-4.11,2.92-6.58c3.04-26.6,8.98-52.78,12.77-79.28
				C357.88,268.75,358.41,264.26,357.37,260.06z"/>
		</g>
		<path class="st3" d="M429.95,267.09l-40.84-18.47c0,0-33.55-0.3-42.54,10.12c-8.99,10.41-16.13,33.32-16.13,33.32l8.97,64.44
			c0,0,3.52,11.06,22.49,15.81c18.97,4.75,40.57-13.72,40.57-13.72L429.95,267.09z"/>
		<g>
			
				<rect x="419.99" y="327.22" transform="matrix(0.8858 0.4641 -0.4641 0.8858 209.8142 -157.5009)" class="st2" width="9.73" height="40.5"/>
			
				<rect x="428.61" y="331.74" transform="matrix(0.8857 0.4642 -0.4642 0.8857 212.9064 -160.9903)" class="st12" width="9.73" height="40.5"/>
			
				<rect x="437.23" y="336.26" transform="matrix(0.8858 0.4641 -0.4641 0.8858 215.9706 -164.4677)" class="st2" width="9.73" height="40.5"/>
			
				<rect x="445.85" y="340.77" transform="matrix(0.8858 0.4641 -0.4641 0.8858 219.0549 -167.9537)" class="st12" width="9.73" height="40.5"/>
			<path class="st5" d="M468.75,393.33l-23.13-12.12l18.8-35.87l23.13,12.12c6.27,3.28,8.69,11.03,5.4,17.3l-6.9,13.17
				C482.77,394.2,475.02,396.62,468.75,393.33z"/>
			<g>
				<path class="st7" d="M213.74,224.73l-28.9-3.03l19.8,23.04c0.59-0.73,1.23-1.42,1.78-2.18
					C210.18,237.28,212.89,231.1,213.74,224.73z"/>
				<path class="st13" d="M239.39,227.42l-25.65-2.69c-0.85,6.37-3.56,12.55-7.32,17.82c-0.55,0.77-1.19,1.45-1.78,2.18l15.95,18.56
					L239.39,227.42z"/>
			</g>
			<g>
				
					<rect x="319.73" y="191.14" transform="matrix(0.4642 -0.8858 0.8858 0.4642 -91.243 446.5829)" class="st14" width="7.5" height="215.13"/>
				
					<rect x="314.49" y="203.38" transform="matrix(0.4641 -0.8858 0.8858 0.4641 -105.5207 447.4616)" class="st14" width="5.14" height="215.13"/>
				
					<rect x="316.25" y="197.78" transform="matrix(0.4642 -0.8858 0.8858 0.4642 -98.9906 447.06)" class="st3" width="7.5" height="215.13"/>
				
					<rect x="323.21" y="184.5" transform="matrix(0.4641 -0.8858 0.8858 0.4641 -83.4912 446.1175)" class="st3" width="7.5" height="215.13"/>
				
					<rect x="326.69" y="177.85" transform="matrix(0.4642 -0.8858 0.8858 0.4642 -75.7473 445.6306)" class="st14" width="7.5" height="215.13"/>
				
					<rect x="330.74" y="172.16" transform="matrix(0.4642 -0.8858 0.8858 0.4642 -69.1029 445.2225)" class="st3" width="5.36" height="215.13"/>
			</g>
			<polygon class="st7" points="402.92,313.11 335.72,277.9 404.8,308.06 			"/>
		</g>
		<g>
			<path class="st7" d="M354.4,213.61c-2.45,0.85-5,1.58-7.58,1.44c-2.58-0.15-5.24-1.32-6.57-3.54c-1.82-3.05-0.62-7.14,1.74-9.79
				c-5-0.74-9.97-4.65-11.13-9.56s0.95-10.44,5.1-13.32c0.45-0.32,0.96-0.64,1.14-1.16c0.17-0.48,0.01-1.01-0.12-1.5
				c-1.73-6.39,0.18-13.63,4.83-18.34c4.65-4.71,11.87-6.71,18.28-5.06c0.53-4.89,3.97-9.71,8.02-12.51
				c4.05-2.8,9.03-4.05,13.95-4.16c3.71-0.08,7.5,0.48,10.77,2.24c3.27,1.76,5.94,4.82,6.67,8.45c3.72-3.51,10.13-3.62,14.78-1.5
				c3.91,1.79,7.32,4.82,9.2,8.7c1.87,3.88,2.1,8.6,0.24,12.49c5.55,0.29,11.06,4.39,13.27,9.49c2.21,5.1,0.62,11.76-4.03,14.8
				c1.92,1.28,3.5,3.32,4.63,5.33c1.1,1.95,1.36,4.25,1.39,6.49c0.02,1.97-0.13,3.97-0.78,5.82c-1.4,3.94-5.21,6.91-9.38,7.3
				c0.55,1.89,0.04,3.87-0.91,5.6c-0.95,1.73-2.41,3.13-4,4.3c-1.3,0.95-2.71,1.76-4.25,2.23c-4.36,1.33-9.49-0.56-11.94-4.41
				L354.4,213.61z"/>
			<g>
				<path class="st5" d="M391.31,246.65c-0.68,0.71-1.42,1.38-2.21,1.97c-2.7,2.02-5.88,3.31-9.14,4.18
					c-2.42,0.65-4.94,1.07-7.41,0.71c-0.28-0.04-0.55-0.1-0.82-0.16c0.06,0.49,0.18,0.97,0.42,1.4c0.76,1.36,2.43,1.89,3.96,2.17
					c4.11,0.76,8.4,0.56,12.43-0.58c0.44-0.12,0.9-0.28,1.18-0.63c0.29-0.36,0.33-0.86,0.36-1.32
					C390.27,251.73,390.74,249.17,391.31,246.65z"/>
				<path class="st11" d="M379.97,252.8c3.26-0.87,6.44-2.16,9.14-4.18c0.79-0.59,1.52-1.25,2.21-1.97
					c0.95-4.15,2.19-8.2,2.94-12.45c-4.18-1.55-11.71,2.05-15.07,4.49c-4.33,3.15-7.43,8.2-7.52,13.55
					c-0.01,0.37,0.01,0.74,0.06,1.11c0.27,0.06,0.55,0.12,0.82,0.16C375.03,253.88,377.55,253.45,379.97,252.8z"/>
			</g>
			<g>
				<path class="st7" d="M362.25,191.46c4.89-2,8.2-7,8.89-12.24c1.27,3.89,2.24,8.72,6.01,10.3c2.11,0.88,4.53,0.76,6.76,0.23
					c3.14-0.74,6.09-2.25,8.53-4.37c-0.17,3.16-1.07,8.12,0.77,10.69c0.71,0.99,1.67,1.78,2.69,2.45c2.82,1.83,6.22,2.74,9.58,2.56
					c-3.71,4.11-5.98,10.46-4.15,15.69c0.86,2.44,2.37,4.62,4.3,6.34c0.37-0.66,0.76-1.32,1.11-1.99
					c2.62-5.03,4.73-10.39,5.48-16.01c0.76-5.62,0.09-11.53-2.59-16.54c-3.76-7.05-11.08-11.59-18.69-14.03
					c-3.71-1.19-7.62-1.97-11.51-1.69c-5.18,0.37-12.43,2.34-16.24,6.19c-2.38,2.4-4.32,5.44-5.86,8.69
					c-0.68,1.43-1.28,2.9-1.81,4.38C357.77,192.52,360.14,192.32,362.25,191.46z"/>
				<path class="st5" d="M401.33,216.78c-1.84-5.23,0.43-11.58,4.15-15.69c-3.35,0.18-6.76-0.73-9.58-2.56
					c-1.02-0.66-1.98-1.46-2.69-2.45c-1.84-2.57-0.94-7.53-0.77-10.69c-2.44,2.11-5.39,3.62-8.53,4.37
					c-2.23,0.53-4.64,0.65-6.76-0.23c-3.77-1.58-4.74-6.41-6.01-10.3c-0.69,5.24-4,10.24-8.89,12.24c-2.11,0.86-4.48,1.05-6.72,0.64
					c-0.61,1.69-1.12,3.38-1.53,5.01c-1.65,6.57-1.98,13.4-1.7,20.17c0.3,7.38,1.39,14.98,5.25,21.28
					c3.86,6.3,11.04,11.01,18.37,10.09c2.73-0.34,5.32-1.43,7.75-2.72c8.94-4.79,15.98-12.56,21.15-21.34
					c0.29-0.48,0.54-0.98,0.82-1.47C403.7,221.4,402.18,219.22,401.33,216.78z"/>
			</g>
			<g>
				<path class="st5" d="M402.23,213.77c-1.45,2.76-1.85,5.97-1.68,9.08c0.13,2.4,0.77,5.06,2.8,6.34c1.5,0.95,3.48,0.9,5.12,0.22
					c1.64-0.68,2.99-1.91,4.18-3.24c1.79-2,3.29-4.32,3.93-6.92c0.64-2.6,0.32-5.52-1.25-7.69c-1.54-2.12-4.49-3.89-7.09-3.06
					C405.63,209.32,403.5,211.37,402.23,213.77z"/>
				<g>
					<path class="st7" d="M413.75,214.23c-0.65-1.1-1.9-1.66-3.09-1.66c-1.2-0.05-2.34,0.52-3.2,1.33
						c-0.88,0.81-1.53,1.85-1.98,2.98c-0.46,1.13-0.73,2.34-1.05,3.56l-0.7-0.41c0.86-0.8,2.05-1.4,3.33-1.15
						c0.62,0.12,1.21,0.5,1.58,1c0.38,0.5,0.56,1.1,0.61,1.69c0.12,1.2-0.46,2.4-1.36,3.09c-0.9,0.71-1.99,1.09-3.07,1.18
						c1.05-0.27,2.07-0.73,2.81-1.48c0.76-0.73,1.17-1.74,1-2.73c-0.14-0.98-0.81-1.86-1.72-1.99c-0.91-0.14-1.9,0.31-2.6,0.99
						l-1.03,1l0.33-1.4c0.29-1.22,0.63-2.46,1.14-3.66c0.51-1.19,1.23-2.34,2.25-3.19c1.01-0.84,2.35-1.4,3.68-1.25
						C411.99,212.28,413.29,213.03,413.75,214.23z"/>
				</g>
			</g>
			<path class="st15" d="M365.68,208.34c-0.12,1.62-1.07,2.88-2.11,2.8c-1.04-0.08-1.79-1.46-1.67-3.08
				c0.12-1.62,1.07-2.88,2.11-2.8C365.06,205.34,365.8,206.72,365.68,208.34z"/>
			<path class="st15" d="M386.71,211.39c-0.12,1.62-1.07,2.88-2.11,2.8s-1.79-1.46-1.67-3.08c0.12-1.62,1.07-2.88,2.11-2.8
				C386.09,208.38,386.83,209.76,386.71,211.39z"/>
			<g>
				<path class="st7" d="M358.44,201.07c0.39-0.95,0.97-1.83,1.67-2.63c0.71-0.8,1.58-1.5,2.59-2.02c0.51-0.26,1.02-0.54,1.58-0.76
					c0.56-0.21,1.16-0.28,1.75-0.18c0.59,0.1,1.17,0.31,1.68,0.66c0.51,0.34,0.96,0.79,1.24,1.44l-0.13,0.32
					c-0.62,0.27-1.11,0.45-1.56,0.61c-0.45,0.17-0.84,0.29-1.23,0.39c-0.38,0.1-0.75,0.13-1.16,0.09c-0.4-0.05-0.83-0.07-1.24,0
					c-0.82,0.15-1.66,0.42-2.49,0.81c-0.84,0.38-1.64,0.9-2.44,1.49L358.44,201.07z"/>
			</g>
			<g>
				<path class="st7" d="M391.03,205.34c-0.63-0.77-1.28-1.47-2-2.05c-0.71-0.58-1.46-1.05-2.22-1.4c-0.38-0.17-0.8-0.25-1.2-0.31
					c-0.4-0.06-0.75-0.18-1.1-0.37c-0.35-0.19-0.7-0.41-1.09-0.69c-0.39-0.26-0.82-0.56-1.36-0.97l-0.05-0.34
					c0.43-0.56,0.98-0.89,1.56-1.09c0.58-0.21,1.19-0.27,1.79-0.23c0.6,0.05,1.17,0.26,1.65,0.6c0.48,0.35,0.92,0.75,1.34,1.13
					c0.85,0.75,1.52,1.65,2.01,2.6c0.49,0.96,0.83,1.95,0.97,2.97L391.03,205.34z"/>
			</g>
			<g>
				<path class="st16" d="M362.92,221.82c-0.16,1.29-2.04,2.11-4.19,1.84c-2.15-0.27-3.77-1.53-3.61-2.82
					c0.16-1.29,2.04-2.11,4.19-1.84C361.47,219.27,363.08,220.53,362.92,221.82z"/>
				<path class="st16" d="M389.95,225.22c-0.16,1.29-2.04,2.11-4.19,1.84c-2.15-0.27-3.77-1.53-3.61-2.82
					c0.16-1.29,2.04-2.11,4.19-1.84C388.5,222.66,390.11,223.93,389.95,225.22z"/>
			</g>
			<g>
				<path class="st7" d="M374.12,206.02c0.1,2.29,0.1,4.68-0.85,6.91c-0.44,1.12-1.28,2.09-2.16,2.85
					c-0.87,0.78-1.77,1.48-2.35,2.37c-1.22,1.73-0.84,4.37,0.92,5.65c0.84,0.69,1.95,0.94,3.08,0.98c1.12,0.07,2.27-0.2,3.19-0.91
					c-0.8,0.86-2.01,1.26-3.19,1.33c-0.6,0.02-1.18-0.02-1.78-0.14c-0.6-0.13-1.17-0.38-1.68-0.73c-1.03-0.68-1.77-1.82-1.99-3.06
					c-0.22-1.23,0.04-2.56,0.75-3.61c0.72-1.04,1.7-1.74,2.55-2.48c0.88-0.72,1.57-1.55,2.08-2.54c0.51-0.98,0.8-2.09,1-3.21
					C373.9,208.32,373.99,207.17,374.12,206.02z"/>
			</g>
			<g>
				<path class="st7" d="M364.08,225.09c0.93,1.35,1.88,2.69,3.03,3.77c1.15,1.06,2.54,1.89,4.04,2.07c1.49,0.2,3.05-0.26,4.52-0.87
					c1.46-0.63,2.84-1.48,4.1-2.55c-0.98,1.32-2.29,2.44-3.78,3.22c-1.47,0.77-3.17,1.35-4.96,1.14c-1.77-0.24-3.32-1.24-4.45-2.49
					C365.43,228.12,364.68,226.61,364.08,225.09z"/>
			</g>
		</g>
		<g>
			<path class="st5" d="M299.43,309.76c-1.53-2.82-1.79-6.17-1.49-9.36c0.34-3.56,1.43-7.19,3.87-9.81
				c0.59-0.64,1.61-1.22,2.26-0.64c0.43,0.38,0.41,1.04,0.34,1.61c-0.35,2.91-1.1,5.75-1.41,8.66c-0.31,2.91-0.15,5.98,1.23,8.56
				c0.2-4.43,0.53-9.04,2.76-12.86c0.65-1.11,1.47-2.15,2.55-2.83c0.41-0.26,0.96-0.46,1.36-0.18c0.3,0.21,0.38,0.61,0.42,0.98
				c0.11,0.93,0.13,1.87,0.05,2.81c0.44-0.84,0.91-1.7,1.66-2.27c0.75-0.57,1.89-0.76,2.63-0.17c0.88,0.69,0.81,2.02,0.66,3.14
				c0.65-1.08,2.01-1.69,3.25-1.45c0.88,1.62,0.38,3.6-0.03,5.4c-0.52,2.27-0.85,4.59-1,6.91c-0.09,1.39-0.13,2.87-0.9,4.04
				c-0.45,0.69-0.93,3.54-6.39,3.5c-2.21-0.02-4.4-0.79-6.46-1.46C302.49,313.58,300.58,311.88,299.43,309.76z"/>
			<g>
				<path class="st7" d="M311.42,296.37c-0.49,1.56-0.95,3.11-1.32,4.69c-0.36,1.57-0.67,3.16-0.87,4.75
					c-0.22,1.6-0.34,3.2-0.42,4.82c-0.06,1.61-0.03,3.23,0.03,4.87c-0.38-1.59-0.56-3.23-0.63-4.87c-0.07-1.64,0.03-3.29,0.24-4.92
					c0.23-1.63,0.57-3.24,1.07-4.81C310.02,299.34,310.63,297.81,311.42,296.37z"/>
			</g>
			<g>
				<path class="st7" d="M316.39,297.18c-0.31,1.45-0.61,2.89-0.83,4.34c-0.21,1.45-0.39,2.9-0.49,4.36
					c-0.11,1.46-0.14,2.92-0.13,4.38c0.01,1.47,0.11,2.93,0.21,4.41c-0.42-1.43-0.67-2.9-0.81-4.38c-0.15-1.48-0.15-2.98-0.05-4.47
					c0.11-1.49,0.32-2.97,0.68-4.42C315.32,299.96,315.77,298.54,316.39,297.18z"/>
			</g>
		</g>
		<path class="st5" d="M395.66,335.15c4.28-15.74,19.84-58.15,29.01-67.28c2.49-2.48,6.7-0.9,8.77,1.93
			c2.08,2.83,2.21,6.61,2.05,10.12c-0.6,13.36-4.27,26.38-8.04,39.21c-4.93,16.76-29.74,46.46-33.2,45.28
			c-12.49-4.27-49.11-60.86-49.11-60.86l15.21-2.05L395.66,335.15z"/>
		<g>
			<path class="st7" d="M321.23,316.09c1.12,1.45,2.18,2.92,3.26,4.38l3.24,4.39l3.24,4.39c1.08,1.47,2.17,2.92,3.22,4.42
				c-1.3-1.29-2.51-2.65-3.69-4.04c-1.19-1.39-2.3-2.83-3.39-4.3c-1.08-1.47-2.13-2.97-3.1-4.51
				C323.02,319.27,322.07,317.71,321.23,316.09z"/>
		</g>
		<path class="st5" d="M360.36,301.5l0.61-17.53c0.05-1.43-1.3-2.51-2.68-2.14l-0.68,0.18l-2.66-2.49c-0.55-0.52-1.33-0.7-2.05-0.5
			l-2.15,0.62l-3.14-2.21c-0.47-0.33-1.05-0.46-1.61-0.36l-1.79,0.32l-0.58-0.26c-1.41-0.62-2.99,0.42-2.99,1.96l0,10.81l4.51,13.64
			"/>
	</g>
	<g>
		<g>
			<path class="st5" d="M422.63,131.07L422.63,131.07c2.63-6.07,7.6-10.91,13.85-13.51l0.19-0.08l-0.84-0.38
				c-5.86-2.61-10.51-7.23-13.08-12.95l-0.12-0.26l-0.65,1.28c-2.49,4.92-6.56,8.92-11.6,11.42l-1.79,0.89l0.11,0.04
				c6,2.47,10.83,7.02,13.55,12.75L422.63,131.07z"/>
			<path class="st17" d="M440.29,139.4L440.29,139.4c1.32-3.03,3.8-5.46,6.92-6.75l0.1-0.04l-0.42-0.19
				c-2.93-1.31-5.26-3.61-6.54-6.48l-0.06-0.13l-0.32,0.64c-1.25,2.46-3.28,4.46-5.8,5.71l-0.9,0.44l0.05,0.02
				c3,1.24,5.41,3.51,6.78,6.37L440.29,139.4z"/>
		</g>
		<g>
			<path class="st5" d="M54.6,254.16L54.6,254.16c2.63-6.07,7.6-10.91,13.85-13.51l0.19-0.08l-0.84-0.38
				c-5.86-2.61-10.51-7.23-13.08-12.95l-0.12-0.26l-0.65,1.28c-2.49,4.92-6.56,8.92-11.6,11.42l-1.79,0.89l0.11,0.04
				c6,2.47,10.83,7.02,13.55,12.75L54.6,254.16z"/>
			<path class="st17" d="M72.27,262.49L72.27,262.49c1.32-3.03,3.8-5.46,6.92-6.75l0.1-0.04l-0.42-0.19
				c-2.93-1.31-5.26-3.61-6.54-6.48l-0.06-0.13l-0.32,0.64c-1.25,2.46-3.28,4.46-5.8,5.71l-0.9,0.44l0.05,0.02
				c3,1.24,5.41,3.51,6.78,6.37L72.27,262.49z"/>
		</g>
		<g>
			<path class="st5" d="M273.44,474.57L273.44,474.57c-1.99-4.59-5.74-8.25-10.47-10.21l-0.15-0.06l0.64-0.28
				c4.43-1.98,7.95-5.46,9.89-9.79l0.09-0.2l0.49,0.97c1.88,3.72,4.96,6.75,8.77,8.63l1.35,0.67l-0.08,0.03
				c-4.53,1.87-8.19,5.3-10.25,9.64L273.44,474.57z"/>
			<path class="st17" d="M260.09,480.87L260.09,480.87c-0.99-2.29-2.87-4.12-5.23-5.11l-0.07-0.03l0.32-0.14
				c2.21-0.99,3.97-2.73,4.95-4.9l0.04-0.1l0.25,0.48c0.94,1.86,2.48,3.37,4.39,4.32l0.68,0.34l-0.04,0.02
				c-2.27,0.93-4.09,2.65-5.12,4.82L260.09,480.87z"/>
		</g>
	</g>
</g>
</svg>
