<?xml version="1.0" encoding="utf-8"?>
<!-- Generator: Adobe Illustrator 25.0.1, SVG Export Plug-In . SVG Version: 6.00 Build 0)  -->
<svg version="1.1" id="Layer_1" xmlns="http://www.w3.org/2000/svg" xmlns:xlink="http://www.w3.org/1999/xlink" x="0px" y="0px"
	 viewBox="0 0 3787.39 3422" style="enable-background:new 0 0 3787.39 3422;" xml:space="preserve">
<style type="text/css">
	.st0{fill:#FFFFFF;}
	.st1{fill:#337AB7;}
	.st2{fill:#EBF3FA;}
	.st3{fill:#FFB27D;}
	.st4{fill:#2C3A64;}
	.st5{fill:#2B478B;}
	.st6{fill:#233862;}
	.st7{fill:#ED7D2B;}
	.st8{fill:#FFB93E;}
	.st9{fill:#ED985F;}
	.st10{fill:#F99746;}
	.st11{fill:#F0995E;}
	.st12{fill:#35488B;}
	.st13{fill:#232E4F;}
	.st14{fill:#E3A330;}
	.st15{fill:#2E3552;}
	.st16{display:none;}
	.st17{display:inline;fill:#D2E3FC;}
	.st18{display:inline;fill:#B7D3F3;}
</style>
<g>
	<g>
		<rect x="-162.22" y="-146.57" class="st0" width="4111.83" height="3715.14"/>
		<circle class="st1" cx="1881.81" cy="1631.79" r="1614.24"/>
		<path class="st2" d="M535.09,3313.53c0,0-503.43-1020.74-233.99-1817.88C1115.66-914.25,3626.28,332.66,3391.62,1649.1
			c-129.05,723.98,350.34,940.9,100.85,1665.96L535.09,3313.53z"/>
	</g>
	<g>
		<path class="st3" d="M1785.36,1839.27l36.6,11.89c0,0,58.14-19.26,108.98,48.92c0,0,15.91,25.38-3.68,44.72
			c-18.05,17.8-21.56-24.14-56.3-15.78c-34.74,8.36-58.27-4.7-73.77-25.91l-25.58-15.29L1785.36,1839.27z"/>
		<g>
			<path class="st4" d="M2536.53,685.35c0.23-6.42,5.2-75.55,110.5-79.16c0,0-51.78,6.17-60.73,28.94c0,0,35.26-28.13,63.97-19.08
				c28.71,9.05,45.58,59.35,45.75,75.9c0.17,16.55-15.78,69.89-34.01,74.42c-6.9,1.72-14.85,1.26-22.07,0.03
				c4.85,7.57,9.6,15.92,14.14,25.25c42.02,86.25-1.31,170.55-36.89,161.24c-22.81-5.97-29.27,32.96-29.27,32.96l-221.65-179.44
				C2366.28,806.39,2447.69,637.94,2536.53,685.35z"/>
			<path class="st3" d="M1992.67,1673.68c0,0-43.92-8.57-53.96,0c-10.04,8.57-57.67,56.96-47.48,72.85
				c10.2,15.88,59.1-13.15,69.26-15.89c10.17-2.74,38.59-13.84,38.59-13.84L1992.67,1673.68z"/>
			<path class="st5" d="M2459.36,3226.41l47.08,17.53c0,0,204.49-283.61,229.67-533.14c4.5-44.55,3-87.71-6.73-127.57
				c0,0,2-11.41,5.5-31.59c1.62-9.42,3.61-20.76,5.88-33.75c6.65-38.09,15.8-90.21,26.25-149.56
				c24.06-136.57,55.23-311.15,79.45-439.48l-12.68-4.07l-137.26-44.28l-28.37-90.1l-102.2-26.91c0,0-22.83,44.66-43.24,255.64
				c-3.77,27.67-7.19,58.19-9.76,91.29c-7.96,101.01-8.53,226.32,9.72,369.57c4.69,36.67,10.61,74.53,17.95,113.43
				c5.38,28.52,6.19,67.38,3.92,112.01C2534.23,2909.4,2459.36,3226.41,2459.36,3226.41z"/>
			<path class="st6" d="M2512.94,2110.41l221.93,441.22c1.62-9.42,3.61-20.76,5.88-33.75c6.65-38.09,15.8-90.21,26.25-149.56
				c24.06-136.57,55.23-311.15,79.45-439.48l-12.68-4.07l-137.26-44.28l-28.37-90.1l-102.2-26.91c0,0-22.83,44.66-43.24,255.64
				C2518.93,2046.8,2515.51,2077.32,2512.94,2110.41z"/>
			<path class="st5" d="M2610.57,1820.1l5.14-44.06c86.08,22.86,316.05-63.88,316.05-63.88s83.39,73.3,72.44,249
				c-5.34,85.76-15.11,450.17-25.3,558c-3.69,39.08-6.91,66.9-8.23,78c-0.03,0.06-0.03,0.08-0.03,0.11c-0.4,3.39,0.78,6.59,2.5,9.55
				c15.01,25.47,27.44,51.99,37.63,79.13c100.06,266.64-15.41,595.02-15.41,595.02l-29.96-12.08c0,0-65.71-365.44-119.1-526.88
				c-9.06-27.38-17.75-48.9-25.72-61.76c-23.21-37.47-44.76-98.69-64.31-171.5c-36.96-137.66-66.71-316.75-86.5-454.98
				C2667.03,2053.9,2610.57,1820.1,2610.57,1820.1z"/>
			<path class="st3" d="M1992.67,1673.68l6.42,43.11c0,0,2.85,0,7.84-0.36c15.68-1.07,53.8-3.21,96.91-7.84
				c64.84-6.41,141.8-17.81,172.44-36.69c46.67-28.5,123.28-115.79,173.15-203.09c1.43-2.14,2.49-4.27,3.56-6.41
				c26.01-46.32,44.18-92.28,45.6-128.98c1.07-22.45-1.42-41.69-6.06-58.43c-6.06-22.09-16.03-39.55-26.37-52.73
				c-1.43-2.14-2.85-4.28-4.99-6.06c-17.1-20.31-33.85-28.86-33.85-28.86c-8.55-3.57-17.81,0.71-27.43,11.04v0.36
				c-7.84,8.2-16.39,20.66-24.58,36.34c-0.36,0.36-0.71,0.71-0.71,1.07c-1.78,3.21-3.56,6.77-5.7,10.69
				c-0.71,0.71-1.07,1.78-1.42,2.5c-3.92,8.19-7.84,16.74-11.76,25.65c-43.82,95.48-81.35,235.8-120.19,278.91
				c-16.75,18.53-102.49,59.2-163.41,86.28C2028.3,1659.43,1992.67,1673.68,1992.67,1673.68z"/>
			<path class="st7" d="M2070.33,1580.54c51.11-23.22,109.79-3.79,133.01,93.81c15.5,65.15,166.25,137.46,98.38,236.93
				c-64.95,78.11-221.15,26.98-207.98-72c13.17-98.98,46.41-181.74,10.16-197.53C2058.65,1622.02,2070.33,1580.54,2070.33,1580.54z"
				/>
			<path class="st8" d="M1982.08,1866.71c107.19-15.33,209.96-11.64,215.69,106.32c5.73,117.96,33.59,339.85,0.16,383.54
				c-33.43,43.69-208.72,37.47-208.72,37.47C1871.94,2194.08,1982.08,1866.71,1982.08,1866.71z"/>
			<path class="st3" d="M2446.13,1285.72c27.02,12.53,59.66,21.06,99.13,23.22c147.98,8.11,181.57-121.62,187.69-207.71
				c-21.33-7.73-40.01-7-50.78-6.42c-10.49,0.58-21.45,1.65-30.48,2.77c-18.1-9.46-50.62-55.39-69.42-132.22l-6.38,2.96
				l-106.78,50.2c0,0,11.34,34.75,19.72,67.99c6.53,26.02,11.22,51.16,7.3,58.19c-8.42,3.42-13.45,5.57-13.45,5.57s0,0.04-0.04,0.12
				C2481.57,1153.11,2458.36,1212.26,2446.13,1285.72z"/>
			<path class="st9" d="M2469.12,1018.52c0,0,11.35,34.71,19.72,67.99c62.41-17.42,81.37-83.02,87.07-118.19L2469.12,1018.52z"/>
			<path class="st3" d="M2455.97,1055.28c0,0,149.32-34.56,126.37-127.22s-19.14-159.52-115.45-141.38
				c-96.31,18.15-106,58.07-105.87,90.87C2361.17,910.34,2416.54,1061.88,2455.97,1055.28z"/>
			<path class="st4" d="M2352.64,824.95c16.05-33.58,34.95-31.79,46.76-25.84c70.16-64.92,138.98-11.88,138.98-11.88
				c26.49,63.99,83.9,90.14,83.9,90.14s-22.94,23.49-89.43,22.97c-20.31-0.16-40.73-9.48-59.31-22.33
				c35.84,36.09,77.86,58.07,77.86,58.07c-83.23-15.93-139.04-112.28-144.75-122.51c-7.05,10.41-20.54,32.58-21.67,51.29
				c-1.54,25.44,7.21,74.82-7.36,76.7C2377.62,941.55,2328.56,875.31,2352.64,824.95z"/>
			<path class="st10" d="M2355.36,1274.84c5.38-16.14,41.33-78.86,41.33-78.86s0.02,0.01,0.02,0.01
				c0.15-0.14,22.85-20.95,85.97-45.73c0,0,0,0.04-0.04,0.12c-1,3.69-27.94,101.28-18.1,122.11c9.99,21.18,199.14-47.2,209.48-62.81
				c8.26-12.53,8.5-78.76,8.26-104.55c-0.04-6.42-0.12-10.34-0.12-10.34s70.61-9.57,110.31,6.5c0,0-15.68,34.05-21.45,71.61
				c-0.54,3.58-1,7.15-1.35,10.72c-0.77,7.57-1,15.14-0.58,22.52c0.58,9.76,5.61,18.41,13.64,26.87c7.3,7.76,17.22,15.41,28.44,23.6
				c7.34,5.3,15.22,10.88,23.37,16.91c0,0,0,0,0,0c0.69,44.22-2.43,116.93,5.76,194.52c2.08,19.68,8.61,38.51,18.91,55.19
				c4.07,6.65,8.76,12.95,13.99,18.84c41.7,46.78,115.66,140.02,99.4,198.06c-1.19,54.73-462.86,126.65-452.98,66.53
				c0,0-69.38-334.36-106.85-415.08c-1.35-2.96-2.58-5.84-3.69-8.8c-12.01-31.86-9.98-64.62-5.93-93.94
				C2382.05,1273.83,2355.36,1274.84,2355.36,1274.84z"/>
			<path class="st7" d="M2643.97,1694.34c91.06-0.96,168.16-95.52,215.28-171.08c-10.3-16.68-16.84-35.52-18.91-55.2
				c-8.19-77.59-5.07-150.31-5.76-194.52c0,0,0,0,0,0c-8.15-6.04-16.03-11.61-23.37-16.91c-11.22-8.19-21.14-15.84-28.44-23.6
				C2708.2,1359.05,2520.51,1695.64,2643.97,1694.34z"/>
			<path class="st3" d="M2299.79,1743.87l12.47,45.6c0,0,15.68-2.85,40.62-7.48c7.48-1.43,11.76-2.49,11.76-2.49
				c19.95-3.92,43.82-9.26,69.83-14.96h0.35c44.54-10.69,94.41-23.51,136.46-37.77c29.57-10.33,55.22-21.37,72.68-32.42
				c1.78-1.07,3.21-2.14,4.99-3.57c41.68-30.28,91.21-119.35,129.69-214.84c5.35-13.18,10.33-26.36,15.32-39.19
				c17.82-47.74,32.07-94.77,40.61-135.39c5.35-24.22,8.91-46.32,9.62-64.49c0.36-6.41,0.71-12.46,0.36-18.17
				c-0.71-103.32-52.02-117.57-52.02-117.57c-1.07-0.36-2.14-0.71-3.56-1.06c-8.91-1.43-18.17,4.63-27.79,16.39
				c-12.11,14.61-24.94,38.48-38.12,67.33c-20.31,45.96-41.69,105.46-61.64,164.61c-11.05,32.42-21.73,64.84-32.42,94.77
				c-6.06,18.17-12.11,35.27-17.81,50.95c-11.04,29.93-21.02,54.15-29.93,69.47c-5.7,9.98-22.09,23.87-43.82,39.55
				c-37.77,27.43-92.99,60.57-141.09,87.64c-19.95,11.4-38.83,21.74-54.51,30.29C2316.53,1734.96,2299.79,1743.87,2299.79,1743.87z"
				/>
			<path class="st10" d="M2723.18,1183.94c68.59-18.91,121.5,34.65,121.5,34.65c-0.86-103.16-52.21-117.28-52.21-117.28
				C2771.81,1092.75,2747.87,1128.53,2723.18,1183.94z"/>
			<path class="st6" d="M2821.15,3305.45h237.12c0,0,5.68-36.14-6.7-63.56c-11.87-26.31-30.46-38.27-26.01-70.1
				c-15.07,15.51-39.62,32.88-73.9,28.27c-4.2,6.81-27.11,43.25-41.14,53.33C2895.02,3264.54,2825.92,3260.57,2821.15,3305.45z"/>
			<path class="st6" d="M2312.02,3305.45h237.12c0,0,8.87-37.82-6.7-63.56c-13.78-22.77-8.5-35.74,1.71-54.58
				c-10.74,4.4-24.64,8.4-39.94,7.52c-11.81-0.68-24.31-6.04-35.26-12.4c-10.21,11.64-53.9,61.16-67.56,70.97
				C2385.89,3264.54,2316.79,3260.57,2312.02,3305.45z"/>
		</g>
		<g>
			<path class="st11" d="M1780.58,2472.56c0,0,95.55,677.72,84.53,761.39l60.3-7.32c0,0,75.47-295.84,66.39-378.63
				c-9.08-82.78,74.77-423.98-2.59-453.97C1911.85,2364.04,1780.58,2472.56,1780.58,2472.56z"/>
			<path class="st3" d="M1867.48,2473.37c0,0,136.3,678.35,130.45,762.55l59.65-13.78c0,0,57.99-304.96,43.84-387.03
				c-14.15-82.07,48.52-427.78-30.54-452.95C1991.82,2356.98,1867.48,2473.37,1867.48,2473.37z"/>
			<path class="st4" d="M1865.83,3222.04c0,0-14.33,26.31-41.63,32.42c-17.19,3.85-31.88,12.89-40.99,25.51
				c-7.69,10.66-0.11,25.55,13.04,25.48l138.73-0.79c11.81-0.07,20.98-10.31,19.73-22.06c-1.09-10.27-2.24-22.24-2.76-31.41
				c-1.14-20.03-22.84-38.03-22.84-38.03s-19.04,10.93-26.39,12.22C1886.74,3228.18,1865.83,3222.04,1865.83,3222.04z"/>
			<path class="st12" d="M1996.28,3222.04c0,0-14.33,26.31-41.63,32.42c-17.2,3.85-31.88,12.89-40.99,25.51
				c-7.69,10.66-0.11,25.55,13.04,25.48l138.73-0.79c11.81-0.07,20.98-10.31,19.73-22.06c-1.09-10.27-2.24-22.24-2.76-31.41
				c-1.14-20.03-22.84-38.03-22.84-38.03s-19.04,10.93-26.39,12.22C2017.19,3228.18,1996.28,3222.04,1996.28,3222.04z"/>
			<path class="st3" d="M1839.39,1885.44c0,0-90.65,152.85-108.94,277.47c0,0,44.09,59.49,62.03,17.72
				C1810.41,2138.85,1939.13,1915.22,1839.39,1885.44z"/>
			<path class="st7" d="M1856.65,1614.12c0.97-1.62,41.54-65.76,117.37-78.56c61.43-10.37,118.93,33.03,128.38,94.61
				c9.49,61.88-0.19,142.06-101.14,170.94L1856.65,1614.12z"/>
			<path class="st3" d="M1875.22,1889.85l114.25,67.86l30.16-80.32c0,0-14.52-29.4-18.38-76.28c-1.6-19.71-1.57-42.53,1.85-67.59
				l-99.34,43.14c0,0,1.73,9.04,2.43,22.27c0.73,14.29,0.25,33.46-4.94,51.37C1896.77,1865.69,1888.85,1880.14,1875.22,1889.85z"/>
			<path class="st4" d="M2137.8,2606.1c-10.66-122.1-26.58-282.63-36.59-348.52c-3.31-21.74-3.48-43.83-0.5-65.6l23.51-173.38
				l7.39-54.41c3.9-28.8-12.08-56.62-38.87-67.84c-24.42-10.19-42.32-12.55-73.1-18.96c-19.11,17.25-56.27,42.03-95.58,34.35
				c-29.54-5.79-35.4-20.4-33.81-37.36c-7.5,0.74-14.36,0.26-20.77,1.15c-24.77,3.36-46.11,17.11-59.66,36.74
				c0-0.01-0.02-0.09-0.02-0.09l-0.48,0.82c-2.13,3.15-4.06,6.43-5.77,9.86l-43.43,74.26c0,0,4.2,25.85,25.54,37.76
				c-21.34,234.98-46.04,765.56-26.12,772.35c129.07,44.04,358.09-17.22,389.1-46.84C2150.21,2758.89,2145.3,2692,2137.8,2606.1z"/>
			<path class="st8" d="M1855.7,1889.81c-66.89,53.58-89.35,188.56-80.57,280.44c16.76-41.73,15.69-103.59,31.93-169.28
				c15.79-63.87,59.87-113.65,59.87-113.65C1865.26,1887.32,1855.7,1889.81,1855.7,1889.81z"/>
			<path class="st9" d="M1901.24,1850.31c54.8,2.02,100.01-49.2,100.01-49.2l-95.07-2.18
				C1906.92,1813.23,1906.43,1832.4,1901.24,1850.31z"/>
			<path class="st3" d="M1876.65,1818.14c0,0,107.29,35.75,150.46-48.63c46.59-91.07,6.35-162.13-30.41-169.09
				c-73.32-13.88-118.03,11.57-132.92,40.53C1848.9,1669.91,1817.41,1798.95,1876.65,1818.14z"/>
			<path class="st0" d="M1923.01,1772.04c0,0-5.28,10.97-33.67,2.81c0,0-23.83-6.83-20.28-19.39
				C1869.07,1755.47,1894.49,1751.61,1923.01,1772.04z"/>
			<path class="st13" d="M2137.8,2606.1c-3.4-3.93-220.58-257.32-228.4-392.12c-7.86-135.87,108.96-235.14,108.96-235.14
				c46.55-3.07,80.93,12.17,105.86,39.75l-23.51,173.38c-2.98,21.77-2.81,43.86,0.5,65.6
				C2111.22,2323.48,2127.14,2484,2137.8,2606.1z"/>
			<path class="st8" d="M2052.49,1881.11c-103.64,23.89-131.5,195.15-83.9,326.24c35.33,97.29,144.28,143.64,144.28,143.64
				c11.83-13.3,2.7-43.22,2.7-43.22c-159.78-101.83-132.9-245.77-95.94-318.4s44.39-99.57,98.96-80.07
				C2111.76,1878.81,2052.49,1881.11,2052.49,1881.11z"/>
			<path class="st7" d="M1951.82,1610.44c0,0-10.17,100.66,85.32,136.33c37.97,14.18,57.74-139.56-21.6-170.25
				c-79.34-30.7-157.58,5.76-166.93,59.42c-9.35,53.66-2.23,64.85-2.23,64.85S1883.51,1598.69,1951.82,1610.44z"/>
			<path class="st3" d="M2009.8,1939.71c0,0-43.79,173.2-45.49,242.1c0,0-96.11,167.85-101.75,179.79
				c-5.65,11.94,34.69,28.26,34.69,28.26s120.57-128.58,143.81-182.62c23.24-54.04,105.69-229.75,72.69-282.2
				C2080.76,1872.59,2009.8,1939.71,2009.8,1939.71z"/>
			<path class="st3" d="M1730.45,2162.91c0,0-8.61,117.98,75.36,210.94c0,0,22.92-27.59,20.03-36.16
				c-2.89-8.56-35.75-140.07-59.76-158.77C1742.08,2160.21,1730.45,2162.91,1730.45,2162.91z"/>
			<path class="st3" d="M1862.56,2361.6c0,0-53.75-0.39-56.74,12.24c-3,12.63,13.82,52.18,53.12,38.4
				c39.3-13.78,38.31-22.39,38.31-22.39L1862.56,2361.6z"/>
			<path class="st3" d="M1825.84,2337.69c0,0,43.18,19.96,28.51,41.22c-14.67,21.26-44,8.55-48.53-5.06
				C1801.28,2360.24,1825.84,2337.69,1825.84,2337.69z"/>
			<path class="st4" d="M1978.19,2031.1c0,0,56.36,52.43,143.26,44.31c0,0,42.82-151.77-25.85-170.4
				C2026.92,1886.37,1970.17,1976.32,1978.19,2031.1z"/>
		</g>
		<g>
			<path class="st6" d="M1307.74,1034.62c0,0,130.02,203.29,88.89,574.73c-12.84,115.95,393.68,299.97,393.68,299.97
				s30.53-23.89,17.45-66.7c0,0-225.65-225.22-248.58-252.88c-20.34-24.53-75.42-285.88-99.17-372.88
				C1419.16,1067.26,1307.74,1034.62,1307.74,1034.62z"/>
			<g>
				<path class="st6" d="M711.22,3098.08c0,0-44.51,40.62-35.82,69.48c8.68,28.86,48.85,48.1,54.28,83.38
					c5.43,35.28,27.14,54.52,46.68,54.52c19.54,0,93.16,0,93.16,0s14.38-24.82-20.35-32.3c-34.74-7.48-47.84-48.94-45.67-87.42
					c2.17-38.48-3.26-89.79-3.26-89.79l-73.82-17.1L711.22,3098.08z"/>
				<path class="st6" d="M1257.27,3203.14c0,0-7.99,92.44,11.55,102.06l250.08-0.52c0,0,0-28.86-40.17-35.27
					c-40.17-6.41-110.73-29.93-122.67-82.31C1344.12,3134.72,1257.27,3203.14,1257.27,3203.14z"/>
				<path class="st8" d="M1468.41,1897.3c0,0-13.19,162.04-28.69,356.83c-21.08,264.59-46.41,589.61-48.92,651.18
					c-4.33,106.92-21.72,277.94-21.72,277.94s-41.23,40.63-123.76,23.51c0,0-73.53-244.14-94.54-502.45
					c-0.33-4.23-0.65-8.5-0.98-12.76c-19.54-262.96-49.93-816.68-49.93-816.68L1468.41,1897.3z"/>
				<path class="st14" d="M1468.41,1897.3c0,0-13.19,162.04-28.69,356.83l-288.95,450.17c-0.33-4.23-0.65-8.5-0.98-12.76
					c-19.54-262.96-49.93-816.68-49.93-816.68L1468.41,1897.3z"/>
				<path class="st8" d="M1408.17,1916.55c0,0-237.74,586.85-394.07,862.64c-156.33,275.79-205.18,352.75-205.18,352.75
					s-89.56-35.28-97.7-59.33c0,0,59.77-532.42,164.47-662.21c59.15-73.34,128.64-293.43,131.9-370.39
					c3.26-76.96,21.17-229.29,21.17-229.29L1408.17,1916.55z"/>
			</g>
			<path class="st3" d="M1095.37,1012.17c0,0,160.86,77.61,253.6,48.82c0,0-22.83-28.8-62.78-50.23
				c3.21-18.61,5.71-34.77,7.14-48.46c3.92-31.61,3.92-49.52,3.92-49.52l-62.06-48.81l-58.85-46.71
				C1180.97,948.6,1095.37,1012.17,1095.37,1012.17z"/>
			<path class="st5" d="M1478.56,1910.69c-2.84,2.46-6.06,3.85-9.65,3.85c-34.94-0.71-136.59,18.6-222.53,9.82
				c-72.77-7.02-136.97-28.08-205.81-58.27c-9.28-4.22-30.34-15.46-29.97-25.29c0.38-11.24,1.42-27.04,2.84-47.44
				c2.88-40.12,6.94-97.1,8.23-164.64c0.96-50.07,0.42-105.96-3.22-165.14c-0.21-3.97-0.42-7.98-0.59-11.99
				c-1.04-21.69-1.55-43.56-1.55-64.92c-0.38-68.84,4.6-134.51,14.59-193.14c17.52-101.86,49.98-182.15,98.47-217.64
				c6.43-4.93,46.74,14.96,83.81,32.89c33.9,16.51,67.76,18.27,99.86,11.95l32.1,28.09c38.91,35.44,81.71,84.26,100.6,158.04
				c15.67,62.53,24.95,175.59,29.97,292.92c2.47,53.38,4.27,106.76,4.98,157.66v1.76c0.38,5.26,0.38,10.57,0.38,15.84
				C1482.83,1805.31,1481.07,1908.93,1478.56,1910.69z"/>
			<path class="st9" d="M1175.26,867.47c0,0,40.66,74.1,118.06,94.83c3.92-31.61,3.92-49.52,3.92-49.52l-62.06-48.81L1175.26,867.47
				z"/>
			<path class="st3" d="M1325.55,910.63c0,0-153.46,25.1-167.86-69.24c-14.41-94.34-43.91-154.64,53.46-174.65
				c97.37-20.02,121.95,13.15,134.54,43.49C1358.26,740.58,1365.09,901.67,1325.55,910.63z"/>
			<path class="st7" d="M1101.91,655.45c-1.39-1.6-4.61-2.89-11.76-3.28c0,0,5.72-3.58,13.36-3.76c1.49-9.95,6.78-27.54,23.9-31.82
				c0,0-9.19,4.9-10.4,15.47c19.82-20.35,62.29-35.17,179.9-25.89c155,12.23,103.91,111.47,83.84,123.3
				c-20.07,11.83-70.57-20.6-107.96-17.64c-37.39,2.97-44.5,56.99-57.18,64.4c-12.68,7.41-7.7-5.69-24.86-13.45
				c-17.16-7.76-18.79,20.68-13.84,39.17c4.95,18.49-18.62,42.88-18.62,42.88s0,0-23.82-25.66
				c-23.83-25.66-46.29-134.35-35.45-157.52C1099.99,659.61,1100.94,657.54,1101.91,655.45z"/>
			<path class="st3" d="M1838.42,1858.44c0,0,19.63-8.8,31.36,3.84c11.73,12.64,39.14,21.35,36.79,27.95
				c-4.87,13.68-30.15-1.74-56.87,6.57C1840.34,1899.7,1811.36,1881.81,1838.42,1858.44z"/>
			<path class="st6" d="M1021.67,1628.72c0.96-50.07,0.42-105.96-3.22-165.14c-0.21-3.97-0.42-7.98-0.59-11.99
				c14.59-72.27,36.66-136.39,69.13-138.48C1087,1313.1,1183.77,1465.16,1021.67,1628.72z"/>
			<path class="st3" d="M893.68,1890.94c0,0,8.07,78.41,16.92,93.24c8.85,14.83,46.53,62.23,62.58,71.53
				c16.05,9.3-9.8-62.45-6.53-76.41c3.27-13.96,13.21,25.48,20.28,26.41c7.08,0.93,5.25-34.57,5.51-47.49
				c0.25-12.92-34.42-44.81-46.64-72.32C933.57,1858.39,893.68,1890.94,893.68,1890.94z"/>
			<path class="st5" d="M1129.8,975.68c0,0-97.1,45.97-143.65,116.66c-72.21,109.64-155.92,509.22-157.46,546.23
				c-1.55,37,61.09,298.23,61.09,298.23s63.53-4.18,79.92-36.25c0,0-12.69-268.41-4.65-285.66
				c8.04-17.26,264.86-360.05,235.98-433.19C1172.15,1108.55,1129.8,975.68,1129.8,975.68z"/>
		</g>
		<path class="st3" d="M2152.29,1788.05c22.8,9.62,54.87,43.11,106.17,22.8c36.7-14.25,75.53-24.23,94.42-28.86
			c7.48-1.43,11.76-2.49,11.76-2.49l-20.31-59.14c0,0-0.71,0.36-2.49,0.71c-13.18,2.85-80.16,17.1-111.52,9.98
			c-35.27-8.19-94.42,34.2-94.42,34.2S2129.48,1778.79,2152.29,1788.05z"/>
	</g>
	<path class="st15" d="M3650.02,3322.02H91.25c-1.68,0-3.05-1.37-3.05-3.05v-12.47c0-1.68,1.37-3.05,3.05-3.05h3558.76
		c1.68,0,3.05,1.37,3.05,3.05v12.47C3653.06,3320.65,3651.69,3322.02,3650.02,3322.02z"/>
	<g class="st16">
		<path class="st17" d="M2007.83,489.78h-312.94c-41.12,0-74.76,33.64-74.76,74.76v118.39c0,18.79,7.04,36,18.59,49.17l-18.59,84.99
			l107.22-59.4h280.49c41.12,0,74.76-33.64,74.76-74.76V564.54C2082.59,523.42,2048.95,489.78,2007.83,489.78z"/>
		<path class="st18" d="M2013.73,579.99h-324.44c-6.68,0-12.14-5.46-12.14-12.14l0,0c0-6.68,5.46-12.14,12.14-12.14h324.44
			c6.68,0,12.14,5.46,12.14,12.14l0,0C2025.87,574.52,2020.41,579.99,2013.73,579.99z"/>
		<path class="st18" d="M2013.73,633.12h-324.44c-6.68,0-12.14-5.46-12.14-12.14l0,0c0-6.68,5.46-12.14,12.14-12.14h324.44
			c6.68,0,12.14,5.46,12.14,12.14l0,0C2025.87,627.66,2020.41,633.12,2013.73,633.12z"/>
		<path class="st18" d="M2013.73,684.27h-324.44c-6.68,0-12.14-5.46-12.14-12.14l0,0c0-6.68,5.46-12.14,12.14-12.14h324.44
			c6.68,0,12.14,5.46,12.14,12.14l0,0C2025.87,678.8,2020.41,684.27,2013.73,684.27z"/>
	</g>
</g>
</svg>
