<?xml version="1.0" encoding="utf-8"?>
<!-- Generator: Adobe Illustrator 25.0.1, SVG Export Plug-In . SVG Version: 6.00 Build 0)  -->
<svg version="1.1" xmlns="http://www.w3.org/2000/svg" xmlns:xlink="http://www.w3.org/1999/xlink" x="0px" y="0px"
	 viewBox="0 0 570.86 570.86" style="enable-background:new 0 0 570.86 570.86;" xml:space="preserve">
<style type="text/css">
	.st0{display:none;}
	.st1{display:inline;}
	.st2{fill-rule:evenodd;clip-rule:evenodd;fill:#DEFCFB;}
	.st3{fill:#F7FFFF;}
	.st4{fill:#5EABA9;}
	.st5{opacity:0.05;}
	.st6{fill:#478281;}
	.st7{opacity:0.15;}
	.st8{fill:none;stroke:#FFFFFF;stroke-width:1.3129;stroke-linecap:round;stroke-linejoin:round;stroke-miterlimit:10;}
	.st9{fill:#FFFFFF;}
	.st10{fill:#71C5EA;}
	.st11{fill:none;stroke:#FFFFFF;stroke-width:2.3084;stroke-linecap:round;stroke-linejoin:round;stroke-miterlimit:10;}
	.st12{fill:none;stroke:#FFFFFF;stroke-width:1.8753;stroke-linecap:round;stroke-linejoin:round;stroke-miterlimit:10;}
	.st13{fill:none;stroke:#FFFFFF;stroke-width:2.49;stroke-linecap:round;stroke-linejoin:round;stroke-miterlimit:10;}
	.st14{opacity:0.1;}
	.st15{fill:#497CC7;}
	.st16{fill:#D9D9D9;}
	.st17{fill:#FFD7BD;}
	.st18{fill:#355B91;}
	.st19{fill:#EBC1A4;}
	.st20{fill:#D6AD8F;}
	.st21{fill:none;stroke:#BF9D86;stroke-width:0.9413;stroke-linecap:round;stroke-linejoin:round;stroke-miterlimit:10;}
	.st22{fill:#FFD2B5;}
	.st23{fill:#FFB9A6;}
	.st24{fill:none;stroke:#BF9D86;stroke-width:1.8825;stroke-linecap:round;stroke-linejoin:round;stroke-miterlimit:10;}
	.st25{fill:#5C4B41;}
	.st26{fill:#AB3D1E;}
	.st27{fill:#E65229;}
	.st28{fill:#314796;}
	.st29{fill:#453831;}
	.st30{fill:#8A3118;}
	.st31{display:inline;fill:#69BFBD;}
	.st32{display:inline;fill:#FFFFFF;}
	.st33{font-family:'ChunkFive-Roman';}
	.st34{font-size:50.0647px;}
</style>
<g id="BACKGROUND" class="st0">
	<g class="st1">
		<rect x="35.43" y="35.43" class="st2" width="500" height="500"/>
		<polygon class="st3" points="535.43,238.26 379.48,254.87 535.43,165.13 535.43,151.33 365.43,227.31 535.43,39.04 535.43,35.43 
			531.83,35.43 343.55,205.43 419.53,35.43 405.74,35.43 315.99,191.39 332.6,35.43 317.33,35.43 285.43,186.55 253.53,35.43 
			238.26,35.43 254.87,191.39 165.13,35.43 151.33,35.43 227.31,205.43 39.04,35.43 35.43,35.43 35.43,39.04 205.43,227.31 
			35.43,151.33 35.43,165.13 191.39,254.87 35.43,238.26 35.43,253.53 186.55,285.43 35.43,317.33 35.43,332.6 191.39,315.99 
			35.43,405.74 35.43,419.53 205.43,343.55 35.43,531.83 35.43,535.43 39.04,535.43 227.31,365.43 151.33,535.43 165.13,535.43 
			254.87,379.48 238.26,535.43 253.53,535.43 285.43,384.32 317.33,535.43 332.6,535.43 315.99,379.48 405.74,535.43 419.53,535.43 
			343.55,365.43 531.83,535.43 535.43,535.43 535.43,531.83 365.43,343.55 535.43,419.53 535.43,405.74 379.48,315.99 535.43,332.6 
			535.43,317.33 384.32,285.43 535.43,253.53 		"/>
	</g>
</g>
<g id="OBJECTS">
	<g>
		<g class="st0">
			<g class="st1">
				<polygon class="st4" points="114.24,367.2 -17.33,367.2 2.95,412.99 -17.33,453.49 114.24,453.49 				"/>
				<path class="st5" d="M114.24,453.42h-12.3L81.19,367.2H31.28c-14.58,12.12-13.12,28.35-13.12,28.35
					c0.44,2.79,0.92,5.47,1.42,8.08c-0.62-2.64-1.11-5.34-1.42-8.08l6.57,57.94h89.51V453.42z"/>
				<polygon class="st4" points="456.62,367.2 588.19,367.2 567.92,412.99 588.19,453.49 456.62,453.49 				"/>
				<path class="st5" d="M552.7,395.55c-0.35,3.07-0.9,6.08-1.64,9.02c0.57-2.91,1.11-5.9,1.6-9.02c0,0,1.45-16.23-13.12-28.35
					h-49.91l-20.75,86.22h-12.27v0.07h89.52L552.7,395.55z"/>
			</g>
			<g class="st1">
				<path class="st6" d="M26.1,408.49c0,0-3.6-38.02,58.13-38.02l29.19,115.02C113.42,485.5,43.61,513.75,26.1,408.49z"/>
				<path class="st7" d="M35.35,385.53c16.22,39.34,41.4,74.03,73.01,101.52c3.19-0.8,5.06-1.56,5.06-1.56L84.23,370.47
					C57.67,370.47,43.21,377.51,35.35,385.53z"/>
			</g>
			<g class="st1">
				<path class="st6" d="M544.73,408.49c0,0,3.6-38.02-58.13-38.02L457.4,485.5C457.4,485.5,527.22,513.75,544.73,408.49z"/>
				<path class="st7" d="M536.76,386.91c-7.53-8.57-22.09-16.44-50.17-16.44L457.4,485.5c0,0,2.44,0.99,6.52,1.9
					C495.35,460.17,520.46,425.84,536.76,386.91z"/>
			</g>
		</g>
		<g>
			<path class="st8" d="M345.96,482.43c10.79-4.75,21.52-10.6,25.18-16.29c17.29-26.85,33.56-52.26,33.56-52.26"/>
			<path class="st9" d="M400.63,420.13c0.25-0.25,29.2,4.37,31.93-26.16C432.57,393.97,409.13,399.44,400.63,420.13z"/>
			<path class="st9" d="M393.67,431.22c0,0,6.29-17.43-0.46-28.76C393.21,402.46,375.04,419.01,393.67,431.22z"/>
			<path class="st9" d="M381.32,449.73c0,0,5.97-15.52-5.51-34.98C375.81,414.75,357.36,438.75,381.32,449.73z"/>
			<path class="st9" d="M394.5,430.89c0,0,8.75-8.98,29.51,4.24C424.02,435.13,405.25,450.82,394.5,430.89z"/>
			<path class="st9" d="M381.66,450.97c0,0,1.74,12.43,25.92,1.25C407.58,452.22,395.78,436.6,381.66,450.97z"/>
			<path class="st9" d="M374.05,462.95c0,0,2.79-18.15-11.76-28.16C362.28,434.79,350.75,462.68,374.05,462.95z"/>
			<path class="st9" d="M395.95,468c0,0-8.94-8.59-26.52-1.16C369.43,466.84,375.88,481.11,395.95,468z"/>
			<path class="st9" d="M355.11,477.47c0,0,7.66-9.76-2.7-22.73C352.41,454.74,338.95,471.28,355.11,477.47z"/>
			<path class="st9" d="M358.97,476.52c0,0-0.34,13.44,27.03,10.82C386,487.34,379.3,474.9,358.97,476.52z"/>
		</g>
		<g>
			
				<ellipse transform="matrix(0.7071 -0.7071 0.7071 0.7071 -115.6641 285.1172)" class="st10" cx="286.33" cy="282.18" rx="259.33" ry="259.33"/>
			<g class="st0">
				<g class="st1">
					<path class="st11" d="M230.69,472.34c-16.57-12.45-32.59-26.77-36.58-37.97c-18.84-52.89-36.51-102.92-36.51-102.92"/>
					<path class="st9" d="M162.06,343.78c-0.34-0.53-51.73-4.22-44.19-57.58C117.88,286.19,155.81,304.95,162.06,343.78z"/>
					<path class="st9" d="M169.54,365.55c0,0-3.78-32.36,12.31-49.04C181.85,316.51,206.33,352.11,169.54,365.55z"/>
					<path class="st9" d="M183.26,402.19c0,0-4-28.96,23.46-57.68C206.71,344.51,228.68,392.99,183.26,402.19z"/>
					<path class="st9" d="M168.24,364.65c0,0-11.38-18.87-52.23-4.57C116.02,360.08,141.87,394.46,168.24,364.65z"/>
					<path class="st9" d="M182.18,404.18c0,0-7.96,20.58-44.87-8.24C137.31,395.93,163.77,373.91,182.18,404.18z"/>
					<path class="st9" d="M190.42,427.73c0,0,2.49-32.19,31.42-43.5C221.84,384.23,230.4,436.6,190.42,427.73z"/>
					<path class="st9" d="M150.89,427.6c0,0,18.75-11.11,45.87,8.65C196.76,436.25,180,458.09,150.89,427.6z"/>
					<path class="st9" d="M217.01,460.18c0,0-9.21-19.77,13.74-37.83C230.75,422.34,247.16,456.06,217.01,460.18z"/>
					<path class="st9" d="M210.78,457.01c0,0-4.8,23.14-50.61,7.69C160.17,464.7,176.63,446.09,210.78,457.01z"/>
				</g>
				<g class="st1">
					<path class="st12" d="M420.49,469.48c13.8-9.65,27.2-20.84,30.75-29.83c16.75-42.42,32.48-82.56,32.48-82.56"/>
					<path class="st9" d="M479.75,366.99c0.26-0.37,33.75-1.68,37.49-33.11c0.68-5.69-5.79-9.49-10.46-6.15
						C497.08,334.68,483.56,347.53,479.75,366.99z"/>
					<path class="st9" d="M473.08,384.46c0,0,2.2-14.52-1.89-27.71c-1.97-6.36-10.95-6.36-12.77,0.04
						C455.82,365.9,456.49,377.76,473.08,384.46z"/>
					<path class="st9" d="M460.93,413.83c0,0,2.94-17-9.5-36.92c-3.19-5.11-10.99-3.53-12.13,2.39
						C436.96,391.41,438.18,408.41,460.93,413.83z"/>
					<path class="st9" d="M474.15,383.77c0,0,7.35-11.3,30.71-5.97c5.81,1.33,7.1,9,2.04,12.15
						C498.59,395.12,486.15,398.28,474.15,383.77z"/>
					<path class="st9" d="M461.75,415.48c0,0,4.62,13.25,26.99,0.8c5.12-2.85,4.35-10.52-1.27-12.17
						C480.08,401.94,470.19,402.61,461.75,415.48z"/>
					<path class="st9" d="M454.41,434.38c0,0-0.78-18.07-14.32-29.91c-4.26-3.73-10.99-0.62-10.96,5.04
						C429.19,421.56,432.96,438.38,454.41,434.38z"/>
					<path class="st9" d="M469.01,432.78c-5.6,0.82-12.35,3.16-19.98,8.33c0,0,8.18,11.44,23.76,4.24
						C479.64,442.18,476.48,431.69,469.01,432.78z"/>
					<path class="st9" d="M431.93,459.99c0,0,4.93-9.7-1.67-21.27c-3.13-5.49-11.5-3.84-12.34,2.43
						C416.87,448.85,418.77,457.73,431.93,459.99z"/>
					<path class="st9" d="M437.07,457.59c0,0,1.83,10.64,18.62,11.2c8.55,0.29,9.2-12.48,0.69-13.27
						C451,455.02,444.58,455.46,437.07,457.59z"/>
				</g>
				<g class="st1">
					<path class="st12" d="M148.39,474.67c-14.02-9.33-27.67-20.2-31.43-29.11c-17.73-42.02-34.38-81.79-34.38-81.79"/>
					<path class="st9" d="M86.77,373.58c-0.27-0.37-33.78-0.9-38.24-32.23c-0.81-5.68,5.57-9.62,10.31-6.39
						C68.7,341.68,82.5,354.21,86.77,373.58z"/>
					<path class="st9" d="M93.84,390.89c0,0-2.53-14.46,1.25-27.74c1.82-6.4,10.8-6.61,12.77-0.25
						C110.66,371.93,110.27,383.8,93.84,390.89z"/>
					<path class="st9" d="M106.67,419.97c0,0-3.33-16.92,8.64-37.13c3.07-5.19,10.9-3.79,12.19,2.11
						C130.11,397,129.29,414.03,106.67,419.97z"/>
					<path class="st9" d="M92.75,390.22c0,0-7.61-11.13-30.84-5.26c-5.78,1.46-6.89,9.16-1.76,12.2
						C68.58,402.14,81.1,405.01,92.75,390.22z"/>
					<path class="st9" d="M105.89,421.63c0,0-4.31,13.36-26.96,1.43c-5.19-2.73-4.59-10.42,0.99-12.2
						C87.24,408.52,97.15,408.96,105.89,421.63z"/>
					<path class="st9" d="M113.66,440.36c0,0,0.37-18.08,13.62-30.23c4.17-3.83,10.97-0.87,11.08,4.79
						C138.58,426.96,135.2,443.86,113.66,440.36z"/>
					<path class="st9" d="M99.03,439.1c5.62,0.69,12.42,2.87,20.17,7.86c0,0-7.91,11.62-23.66,4.79
						C88.61,448.75,91.53,438.18,99.03,439.1z"/>
					<path class="st9" d="M136.73,465.44c0,0-5.15-9.59,1.18-21.3c3.01-5.56,11.41-4.11,12.4,2.14
						C151.52,453.96,149.83,462.88,136.73,465.44z"/>
					<path class="st9" d="M131.53,463.16c0,0-1.59,10.68-18.36,11.63c-8.54,0.48-9.49-12.26-0.99-13.25
						C117.54,460.92,123.97,461.21,131.53,463.16z"/>
				</g>
				<g class="st1">
					<path class="st13" d="M345.68,412.39c18.95-11.88,37.46-25.81,42.77-37.49c25.06-55.13,48.61-107.3,48.61-107.3"/>
					<path class="st9" d="M431.14,280.45c0.41-0.54,55.99,0.17,52.73-57.87C483.87,222.58,441.39,239.29,431.14,280.45z"/>
					<path class="st9" d="M421.12,303.17c0,0,7.01-34.44-8.77-53.83C412.35,249.34,382.8,285.38,421.12,303.17z"/>
					<path class="st9" d="M403.04,341.3c0,0,6.93-30.76-19.96-64.12C383.08,277.18,355.05,327.28,403.04,341.3z"/>
					<path class="st9" d="M422.59,302.33c0,0,13.94-19.25,56.55-0.16C479.14,302.17,448.23,336.76,422.59,302.33z"/>
					<path class="st9" d="M404.02,343.54c0,0,6.69,22.85,48.98-4.78C453,338.76,426.56,312.68,404.02,343.54z"/>
					<path class="st9" d="M393.02,368.11c0,0,0.25-34.83-29.82-49.62C363.2,318.49,349.24,374,393.02,368.11z"/>
					<path class="st9" d="M435.52,371.56c0,0-19.15-13.65-50.09,5.12C385.43,376.68,401.46,401.68,435.52,371.56z"/>
					<path class="st9" d="M361.48,400.56c0,0,11.7-20.41-11.33-41.92C350.16,358.65,329.46,393.4,361.48,400.56z"/>
					<path class="st9" d="M368.47,397.72c0,0,3.05,25.31,53.7,12.87C422.16,410.59,406.17,389.09,368.47,397.72z"/>
				</g>
			</g>
			<path class="st14" d="M459.12,398.5c-0.05-0.62-0.1-1.22-0.17-1.82c0-0.04-0.01-0.08-0.02-0.12c-0.03-0.22-0.06-0.43-0.09-0.64
				c-0.05-0.4-0.11-0.81-0.17-1.2c-0.04-0.25-0.09-0.49-0.13-0.74c-0.06-0.34-0.13-0.68-0.2-1.01c-0.06-0.26-0.11-0.51-0.18-0.76
				c-0.07-0.3-0.15-0.6-0.23-0.89c-0.07-0.25-0.14-0.51-0.22-0.75c-0.03-0.11-0.06-0.23-0.1-0.33c-0.03-0.1-0.07-0.19-0.11-0.29
				c-0.17-0.52-0.36-1.02-0.56-1.51c-0.06-0.14-0.11-0.28-0.17-0.42c-0.27-0.62-0.56-1.22-0.87-1.78c0,0,0,0,0,0
				c-0.2-0.36-0.43-0.76-0.67-1.18c0,0,0,0,0,0c-0.07-0.12-0.14-0.25-0.21-0.37c0,0-0.01-0.01-0.01-0.01
				c-0.18-0.31-0.37-0.63-0.57-0.97c0,0,0,0,0,0c-0.08-0.14-0.17-0.29-0.26-0.43c0,0,0-0.01-0.01-0.01
				c-0.21-0.36-0.43-0.73-0.67-1.11c0,0,0,0,0,0c-0.07-0.12-0.14-0.24-0.22-0.36c0,0,0,0,0-0.01c-1.65-2.71-3.67-5.89-5.76-8.99
				c0,0,0,0,0-0.01c0,0-0.01-0.01-0.01-0.01l0,0c-2.31-3.44-4.69-6.78-6.7-9.25c-28.94-35.57-118.56-76.84-118.56-76.84l-0.01,1.54
				c-0.66-0.44-1.32-0.85-1.96-1.24l-3.82-13.91c0,0-3.47-1.19-8.93-2.5l-0.98-6.78c19.16-4.44,35.32-15.28,45.45-33.03h0
				c0,0,0,0,0,0c2.07-3.63,3.88-7.54,5.42-11.75c29.1,18,40.71-35.09,28.04-42.18c-4.92-2.75-9.91-1.82-14.2,0.36l0.03-0.02
				l-1.36-0.23c14.59-49.16-12.49-54.75-12.49-54.75c6.45-44.98-77.04-50.74-93.59-52.05s-31.35-11.2-31.35-11.2
				c1.24,8.1,4.06,12.88,4.06,12.88c-12.26-5.15-24.57-13.83-24.57-13.83c-0.66,14.9,3.18,22.46,3.18,22.46
				c-4.67-2.38-9.76-8.05-9.76-8.05c-2.01,15.33,2.31,26.25,10.35,34.05c-0.13,0.06-0.26,0.13-0.4,0.2
				c-0.03,0.02-0.07,0.04-0.1,0.05c-0.42,0.22-0.85,0.47-1.29,0.73c-0.04,0.03-0.08,0.05-0.13,0.08c-0.43,0.27-0.86,0.56-1.3,0.88
				c-0.05,0.04-0.1,0.07-0.14,0.11c-0.44,0.32-0.87,0.67-1.31,1.04c-0.05,0.04-0.09,0.08-0.14,0.12c-0.44,0.39-0.89,0.8-1.33,1.25
				c-0.04,0.04-0.08,0.08-0.12,0.12c-0.46,0.46-0.91,0.96-1.36,1.49c-0.02,0.03-0.05,0.06-0.07,0.08
				c-5.58,6.67-10.43,18.82-10.08,40.91c-2.77-2.67-6.21-4.3-10.25-2.95c-11.14,3.72-13.45,55.34,11.18,48.05
				c0.01,0.11,0.02,0.22,0.03,0.32c0,0.03,0,0.05,0.01,0.08c0.09,1,0.2,1.98,0.33,2.96c0.02,0.19,0.05,0.37,0.07,0.55
				c0.42,3.06,0.99,6.02,1.74,8.87c0,0,0,0.01,0,0.01h0c7.01,26.7,28.18,43.96,55.7,51.09l-1.25,8.1c-5.47,1.3-8.95,2.49-8.95,2.49
				l-5.47,13.55c-8.87,3.13-50,17-91.43,20.27c-35.77,2.82-27.29-71.57-27.29-71.57s-0.25-0.02-0.73-0.06
				c6.4-4.57,21.97-34.68,15.59-35.97c-3.72-0.75-9.12,5.14-13,10.21c2.19-12.25,3.86-25.94,2.75-35.59
				c-1.33-11.52-15.2,28.3-15.2,28.3s5.08-35.5,0.07-36.87c-5.01-1.37-13.73,36.7-13.73,36.7s-0.74-31.69-5.07-31.51
				c-6.66,0.28-5.3,34.06-5.3,34.06s-5.45-22.19-10.51-23.13c-3.87-0.72-4.76,27.81,2.12,46.66c-0.74-0.16-1.49-0.33-2.25-0.5
				c0,0-11.38,62.57,9.9,100.87c0.02,0.04,0.05,0.09,0.07,0.13c0.38,0.67,0.76,1.34,1.16,2c0.05,0.08,0.1,0.16,0.14,0.24
				c0.38,0.62,0.77,1.24,1.17,1.85c0.07,0.11,0.15,0.23,0.22,0.34c0.38,0.58,0.77,1.14,1.17,1.7c0.1,0.14,0.2,0.28,0.3,0.42
				c0.38,0.53,0.78,1.05,1.18,1.57c0.13,0.16,0.25,0.32,0.38,0.48c0.39,0.49,0.78,0.97,1.18,1.45c0.15,0.18,0.31,0.36,0.47,0.54
				c0.39,0.45,0.78,0.89,1.19,1.33c0.18,0.2,0.37,0.39,0.56,0.59c0.39,0.41,0.78,0.81,1.19,1.21c0.21,0.21,0.43,0.42,0.65,0.62
				c0.39,0.37,0.78,0.74,1.19,1.1c0.25,0.22,0.5,0.43,0.75,0.65c0.39,0.33,0.78,0.67,1.18,0.99c0.28,0.23,0.57,0.45,0.86,0.67
				c0.39,0.3,0.77,0.6,1.17,0.89c0.32,0.23,0.65,0.46,0.98,0.68c0.38,0.26,0.76,0.53,1.15,0.79c0.36,0.24,0.74,0.46,1.11,0.69
				c0.37,0.23,0.74,0.46,1.12,0.68c0.42,0.24,0.85,0.47,1.28,0.7c0.35,0.19,0.7,0.39,1.05,0.57c0.51,0.26,1.03,0.5,1.55,0.75
				c0.3,0.14,0.59,0.29,0.89,0.42c0.82,0.37,1.66,0.72,2.52,1.05c0.01,0,0.02,0.01,0.03,0.01c1.99,0.76,3.97,1.47,5.94,2.15
				c0.17,0.06,0.33,0.11,0.5,0.17c13.6,4.63,26.74,7.28,38.72,8.66c0.33,0.04,0.66,0.08,0.98,0.12c0.28,0.03,0.54,0.05,0.82,0.08
				c1.17,0.12,2.33,0.23,3.47,0.33c0.48,0.04,0.96,0.09,1.43,0.13c1.63,0.13,3.23,0.24,4.81,0.33c0.09,0,0.17,0.01,0.26,0.01
				c1.52,0.08,3,0.15,4.47,0.19c0.31,0.01,0.62,0.02,0.93,0.03c1.27,0.04,2.51,0.06,3.73,0.07c0.14,0,0.29,0.01,0.43,0.01
				c0.06,0,0.13,0,0.19,0c4,0.02,7.76-0.07,11.22-0.25l-8.2,68.75l18.8,5.63c0,0.32,0,0.64,0,0.95c0,1.66,0,3.32,0.01,4.96
				c0,0.02,0,0.04,0,0.06c0.01,1.7,0.03,3.37,0.06,5.04c0,0.32,0.01,0.64,0.02,0.96c0.03,1.63,0.06,3.25,0.09,4.86
				c0,0.01,0,0.01,0,0.02l0,0c1.12,47.76,6.93,83.3,6.93,83.3h2.25h62.16h3.55h3.26h5.01h73.48h1.13c0,0,4-35.83,4.39-79.96l0,0
				c0,0,0,0,0,0c0.06-6.7,0.04-13.58-0.1-20.56c22.37-2.32,62.59-7.98,82.51-19.9c0.04-0.03,0.09-0.05,0.13-0.08
				c0.71-0.43,1.39-0.86,2.04-1.3c0.02-0.01,0.03-0.02,0.05-0.03c0.63-0.43,1.22-0.86,1.8-1.3c0.11-0.09,0.23-0.18,0.34-0.26
				c0.56-0.44,1.1-0.88,1.6-1.34C458.64,411.37,459.58,404.56,459.12,398.5z M118.92,234.3l2.4,0.93c-0.61-0.06-1.47-0.14-2.57-0.27
				C118.8,234.76,118.86,234.53,118.92,234.3z M367.37,388.7c-1.61,0.41-3.14,0.81-4.62,1.19c-0.07,0.02-0.13,0.04-0.2,0.05
				c-0.61-5.3-1.33-10.52-2.16-15.62c7.79,2.76,16.23,6.08,24.81,10.02c-3.58,0.84-6.98,1.65-10.17,2.44
				C372.34,387.44,369.78,388.08,367.37,388.7z"/>
			<g>
				<g>
					<path class="st15" d="M322.28,270.21c0,0,89.62,41.27,118.56,76.84c4.96,6.1,12.19,17.5,15.08,22.71
						c0.78,25.43-12.14,34.1-39.7,15.35c-40.7-27.69-94.28-38.28-94.28-38.28L322.28,270.21z"/>
					<g>
						<path class="st16" d="M212.79,523.7c0,0-14.63-90.72-1.28-177.03c12.83-82.95,49.58-82.37,49.58-82.37h41.92
							c0,0,13.33,0.34,28.48,14.84c12.2,11.67,16.4,30.79,23.96,66.22c15.33,71.9,4.8,178.34,4.8,178.34H212.79z"/>
						<g>
							<path class="st15" d="M303.29,510.81c1.08-30.6,0.72-76.77-11.75-127.7c-13.63-55.68-46.88-111.47-46.89-111.48
								c-11.61,9.29-28.91,30.03-35.78,75.05c-13.16,86.3,1.66,177.03,1.66,177.03h76.23C296.76,520.69,303.09,516.53,303.29,510.81
								z"/>
							<g>
								<g>
									<g>
										<path class="st17" d="M119.49,199.93c0,0,11.39-18.4,17.8-17.11c6.41,1.3-9.35,31.71-15.69,36.04l-7.29-2.83
											L119.49,199.93z"/>
										<g>
											<path class="st17" d="M117.97,221.44c0,0,11.58-42.25,9.07-64c-1.33-11.52-15.2,28.3-15.2,28.3s5.08-35.5,0.07-36.87
												c-5.01-1.37-13.73,36.7-13.73,36.7s-0.74-31.69-5.07-31.51c-6.66,0.28-5.3,34.06-5.3,34.06S82.36,165.94,77.3,165
												c-5.06-0.94-5.05,48.16,10.82,60.2L117.97,221.44z"/>
										</g>
									</g>
								</g>
								<g>
									<path class="st15" d="M242.93,269.52c0,0-46.43,17.21-93.21,20.9c-35.77,2.82-27.29-71.57-27.29-71.57
										s-16.39-1.21-45.27-7.68c0,0-18.97,104.17,37.76,125.96c54.29,20.85,103.12,8.86,103.12,8.86L242.93,269.52z"/>
									<path class="st14" d="M127.02,341.26c0.22-1.46,0.37-2.94,0.37-4.46c0-16.29-13.2-29.49-29.49-29.49
										c-4.27,0-8.32,0.93-11.99,2.56c6.2,12.1,15.44,22.04,29.01,27.25C119,338.69,123.03,340.05,127.02,341.26z"/>
								</g>
							</g>
							<path class="st15" d="M303.29,510.81c1.08-30.6,0.72-76.77-11.75-127.7c-13.63-55.68-46.88-111.47-46.89-111.48
								c-11.61,9.29-28.91,30.03-35.78,75.05c-13.16,86.3,1.66,177.03,1.66,177.03h76.23C296.76,520.69,303.09,516.53,303.29,510.81
								z"/>
							<path class="st18" d="M291.54,383.11c-13.63-55.68-47.2-112.99-47.21-113c-2.12,1.69-4.7,0.87-9.76,3.06
								c9.32,16.5,36.38,65.58,47.59,109.94c12.87,50.93,13.59,97.1,12.75,127.7c-0.16,5.72-6.45,9.88-16.42,12.9h8.27
								c9.99-3.01,16.32-7.17,16.52-12.9C304.37,480.21,304,434.04,291.54,383.11z"/>
						</g>
						<g>
							<path class="st15" d="M331.49,279.15c-4.47-4.27-8.78-7.3-12.66-9.47c-39.71,93.18-43.74,214.94-43.88,254.03h86.42
								c0,0,11.88-106.44-3.29-178.34C350.6,309.94,343.69,290.81,331.49,279.15z"/>
							<path class="st18" d="M318.83,269.67c-39.71,93.18-43.74,214.94-43.88,254.03h6.8c0.39-38.51,5.06-156.99,43.68-249.69
								C323.14,272.29,320.92,270.84,318.83,269.67z"/>
						</g>
						<g>
							<path class="st9" d="M306.59,433.31c-0.07,3.53-2.74,6.37-5.98,6.37c-3.24,0-5.84-2.84-5.81-6.37
								c0.03-3.55,2.71-6.44,5.99-6.44S306.66,429.76,306.59,433.31z"/>
							<path class="st9" d="M302.78,459.31c-0.05,3.37-2.66,6.08-5.83,6.08c-3.17,0-5.72-2.72-5.7-6.08
								c0.02-3.39,2.63-6.15,5.83-6.15S302.84,455.92,302.78,459.31z"/>
							<path class="st9" d="M301,490.19c-0.05,3.18-2.58,5.75-5.66,5.75s-5.56-2.57-5.55-5.75c0.01-3.2,2.55-5.81,5.66-5.81
								C298.57,484.37,301.05,486.99,301,490.19z"/>
						</g>
					</g>
					<g class="st14">
						<path d="M458.33,389.66c-3.95-17.83-19.71-20.49-59.05-11.23c-3.47,0.82-6.81,1.62-10.01,2.41
							c12.39,5.44,24.72,10.24,35.21,13.16C443.64,399.35,455.11,397.35,458.33,389.66z"/>
						<path d="M365.67,422.88C365.67,422.88,365.67,422.88,365.67,422.88c0-0.28-0.01-0.56-0.02-0.84c-0.05-2.24-0.1-4.48-0.17-6.74
							c-0.03-0.93-0.07-1.86-0.1-2.8c-0.06-1.65-0.12-3.3-0.19-4.95c-0.05-1.05-0.1-2.1-0.15-3.15c-0.08-1.57-0.16-3.13-0.25-4.7
							c-0.06-1.06-0.13-2.11-0.19-3.17c-0.1-1.61-0.21-3.21-0.33-4.81c-0.07-0.99-0.14-1.98-0.22-2.96c-0.03-0.43-0.06-0.87-0.1-1.3
							c0,0-0.01,0-0.01,0c-0.84-10.25-2-20.35-3.59-30.01c-3.02-13.65-5.68-21.47-5.68-21.47c-1.05,13.7,1.36,34,4.48,52.83
							c-11.7,3.33-18.2,5.48-18.2,5.48s-0.19,0.62-0.47,1.73c-5.06-2.57-10.62-4.61-15.3-5.52l2.82-27.41l-7.03,0.49l0.58-12.51
							c-28.06,0.07-51.52,12.24-58.28,16.12l-3.93-0.4c0,0-20.21-18.75-49.42-26.23c-0.36,1.99-0.7,4.02-1.02,6.11
							c-4.92,32.28-5.93,65.18-5.26,93.72l41.62,11.74c2.99,3.14,7.79,3.72,11.45,1.4l0.3-0.19l62.16-4.36l0.42-4.11
							c8.83-0.37,18.54-1.92,25.98-5.25c1.01,1.73,2.14,3.45,3.43,5.12c0,0,6.69-0.11,16.77-1.01
							C365.83,436.95,365.8,429.96,365.67,422.88z"/>
					</g>
					<path class="st14" d="M137.68,344.05L137.68,344.05c8.65,2.02,16.36,3.34,23.38,4.18c7.28,0.8,14.12,1.14,20.36,1.18
						c6.88-0.03,13.16-0.47,19.22-1.04c-0.02,0.07-0.03,0.15-0.04,0.22c3.07-0.29,5.81-0.62,8.13-0.95
						c-6.66,44.39-5.97,89.84-3.73,123.45c5.93-70.6,14.59-135.11,14.59-135.11C190.27,344.88,137.68,344.05,137.68,344.05z"/>
				</g>
				<g>
					<path class="st16" d="M281.49,271.22l38.1,1.77l-3.1-16.38c0,0-16.91-5.81-34.91-5.81c-18.01,0-34.97,5.81-34.97,5.81
						l-3.24,16.38L281.49,271.22z"/>
					<g>
						<path class="st19" d="M310.69,275.61L310.69,275.61c-17.88,10.7-40.65,10.7-58.43,0l0,0l8.89-57.66h41.17L310.69,275.61z"/>
						<path class="st20" d="M306.84,249.1l-4.52-31.15h-41.17l-5.71,37.04C274.01,257.42,291.73,255.55,306.84,249.1z"/>
					</g>
					<g>
						<polygon class="st16" points="280.15,279.64 283.71,283.59 286.77,279.22 301.64,293.64 283.85,312.67 263.33,293.38 						
							"/>
						<path class="st9" d="M246.62,256.61c0,0,7.26,13.52,33.53,23.03l-15.99,26.4c0,0-21.51-16.27-23.59-34.46L246.62,256.61z"/>
						<path class="st9" d="M286.77,279.22c0,0,21.36-5.74,29.73-22.61l4.5,16.38c0,0-1.82,23.8-18.87,33.05L286.77,279.22z"/>
					</g>
				</g>
				<g>
					<g>
						<g>
							<g>
								<path class="st19" d="M359.46,170.79c0,0,13.3-17.56,26.04-10.43c13.07,7.31,0.31,63.57-30.84,40.27L359.46,170.79z"/>
								<path class="st21" d="M367.41,186.46c0,0,3.47-0.74,3.54-4.48c0.07-3.74-2.07-4.63-2.07-4.63l0.27-6.66
									c0,0,6.67-7.33,12.81-6.36c6.14,0.96,4.12,9.61,4.12,9.61"/>
								<path class="st21" d="M379.68,164.32c0,0-1.28,7.12,0.72,11.34"/>
							</g>
							<g>
								<path class="st19" d="M205.91,150.38c0,0-6.68-20.13-18.14-16.3c-11.76,3.93-13.69,61.3,15.58,46.26L205.91,150.38z"/>
								<path class="st21" d="M196.38,163.61c0,0-2.55-1.55-1.81-5.18c0.74-3.63,2.6-3.98,2.6-3.98l1.2-6.49
									c0,0-3.66-8.67-8.67-9.21c-5-0.54-5.26,8.29-5.26,8.29"/>
								<path class="st21" d="M191.47,139.29c0,0-0.51,7.18-2.96,10.78"/>
							</g>
						</g>
						<g>
							<g>
								<path class="st22" d="M362.26,182.82c-7.04,51.49-46.9,71.79-91.83,65.85c-44.93-5.95-77.91-35.89-70.87-87.38
									c7.04-51.49,49.17-88.41,94.1-82.47C338.59,84.76,369.3,131.33,362.26,182.82z"/>
								<path class="st23" d="M207.05,167.47c-2.93-0.39-5.76,0.16-8.22,1.4c-0.59,9.49,0.23,18.18,2.3,26.05
									c0.68,0.2,1.38,0.36,2.1,0.46c7.7,1.02,14.81-4.4,15.86-12.11C220.14,175.56,214.75,168.49,207.05,167.47z"/>
								<path class="st23" d="M351.48,180.88c-9.25-1.22-17.78,5.29-19.04,14.54c-1.27,9.26,5.21,17.75,14.46,18.98
									c1.75,0.23,3.48,0.18,5.13-0.11c4.53-7.95,7.85-17.28,9.68-28.05C359.14,183.4,355.59,181.42,351.48,180.88z"/>
								<path class="st19" d="M285.55,238.08c-0.2,3.08-1.13,5.53-2.08,5.47c-0.95-0.06-1.56-2.6-1.36-5.68
									c0.2-3.08,1.13-5.52,2.08-5.47C285.15,232.47,285.76,235.01,285.55,238.08z"/>
							</g>
							<path class="st24" d="M277.72,145.85c0,0-19.12,30.68-12.84,38.67c4.04,5.13,17.9,3.39,17.9,3.39"/>
							<path class="st25" d="M243.64,151.38c-0.68,4.96-3.67,8.65-6.67,8.25c-3.01-0.4-4.9-4.74-4.22-9.7
								c0.68-4.96,3.67-8.65,6.67-8.25C242.43,142.08,244.32,146.42,243.64,151.38z"/>
							<path class="st25" d="M321.02,161.62c-0.68,4.96-3.67,8.65-6.67,8.25s-4.9-4.74-4.22-9.7c0.68-4.96,3.67-8.65,6.67-8.25
								C319.81,152.32,321.7,156.66,321.02,161.62z"/>
							<g>
								<g>
									<path class="st26" d="M247.65,195.72c0,0,35.56,14.89,65.03-0.57c0,0-0.19,30.91-29.23,29.75
										C254.4,223.72,248.64,206.45,247.65,195.72z"/>
									<path class="st27" d="M278.94,213.26c-8.24-0.33-14.16,1.93-18.41,5.32c5.27,3.45,12.62,5.89,22.92,6.3
										c8.24,0.33,14.16-1.93,18.41-5.32C296.59,216.12,289.23,213.68,278.94,213.26z"/>
								</g>
								<path class="st9" d="M311.24,204.29c1.4-5.1,1.44-9.15,1.44-9.15c-29.47,15.46-65.03,0.57-65.03,0.57
									c0.24,2.62,0.77,5.63,1.85,8.71C261.09,208,287.8,214.16,311.24,204.29z"/>
							</g>
							<path class="st25" d="M225.47,121.22c-1.12,0.27-1.81-1.16-0.9-1.86c5.38-4.17,18.4-9.07,28.67-7.4
								c12.88,2.1,6.29,13.03,2.32,11.92C251.94,122.86,237.2,118.35,225.47,121.22z"/>
							<path class="st25" d="M337.73,136.89c1.13,0.62,2.32-0.73,1.55-1.76c-4.58-6.11-17.25-15.25-28.91-16.44
								c-14.63-1.49-10.78,12.32-6.13,12.27C308.48,130.92,325.85,130.34,337.73,136.89z"/>
						</g>
					</g>
					<g>
						<path class="st28" d="M293.33,157.13c-4.18-3.18-9.47-5.42-15.29-6.19c-6.68-0.88-13.21,0.29-18.49,2.99
							c0.67,2.27,0.79,4.86,0.3,7.55c4.9-4.27,11.23-6.4,17.55-5.56c4.97,0.66,9.42,3.06,12.87,6.61
							C290.79,160.36,291.88,158.55,293.33,157.13z"/>
						<g>
							<polygon class="st28" points="337.94,154.99 371.33,160.7 363.25,166.07 338.76,160.35 							"/>
							<path class="st28" d="M318.72,137.89c-14.5-1.92-27.11,2.78-29.09,17.29c-1.98,14.51,8.16,27.83,22.66,29.75
								c14.5,1.92,27.86-8.29,29.85-22.8S333.22,139.81,318.72,137.89z M312.96,180.01c-11.47-1.52-19.5-12.05-17.93-23.53
								c1.57-11.48,11.54-15.19,23.01-13.68c11.47,1.52,20.09,7.7,18.52,19.17C335,173.46,324.43,181.53,312.96,180.01z"/>
						</g>
						<g>
							<polygon class="st28" points="216.99,138.99 198.83,137.87 203.44,143.82 214.75,143.94 							"/>
							<path class="st28" d="M239.98,127.47c-14.5-1.92-27.11,2.78-29.09,17.29c-1.98,14.51,8.16,27.83,22.66,29.75
								c14.5,1.92,27.86-8.29,29.85-22.8C265.38,137.2,254.48,129.39,239.98,127.47z M234.22,169.59
								c-11.47-1.52-19.5-12.05-17.93-23.53c1.57-11.48,11.54-15.19,23.01-13.68c11.47,1.52,20.09,7.7,18.52,19.17
								C256.26,163.03,245.69,171.11,234.22,169.59z"/>
						</g>
					</g>
					<path class="st25" d="M232.81,92.11c-2.54-3.25-5.17-6.5-7.94-9.62c-0.53,1.73-0.94,3.56-1.19,5.52c0,0-33.78-1.94-23.86,71.41
						c0,0,14.07-36.57,37.16-57.02c0,0,0.8-0.61,3.42-0.96C237.62,98.55,235.22,95.21,232.81,92.11z"/>
					<path class="st29" d="M232.7,106.47c1.39-1.41,2.82-2.77,4.28-4.07c0,0,0.8-0.61,3.42-0.96c-2.77-2.89-5.17-6.24-7.59-9.33
						c-2.54-3.25-5.17-6.5-7.94-9.62c-0.53,1.73-0.94,3.56-1.19,5.52c0,0-9.53-0.55-16.97,9.92
						C214.27,101.99,223.26,104.68,232.7,106.47z"/>
					<path class="st25" d="M362.44,180.94c0,0-14.69-19.22-21.67-64.8c0,0-4.23-5.55-35.56-6.18c-36.2-0.72-106.83-0.33-99.78-54.04
						c0,0,5.1,5.67,9.76,8.05c0,0-3.84-7.56-3.18-22.46c0,0,12.31,8.68,24.57,13.83c0,0-2.82-4.78-4.06-12.88
						c0,0,14.8,9.89,31.35,11.2c16.56,1.31,100.04,7.07,93.59,52.05C357.47,105.71,391.72,112.78,362.44,180.94z"/>
				</g>
				<g>
					<g>
						<path class="st17" d="M331.52,394.51c0,0-20.07-9.82-16.82-17.25c3.25-7.43,31.16,3.82,38.53,13.7L331.52,394.51z"/>
						<g>
							<path class="st9" d="M259.8,350.69c0,0-23.03-22.09-55.75-28.64l-4.43,29.51L259.8,350.69z"/>
							<path class="st9" d="M261.73,352.3c0,0,27.15-16.76,60.52-16.3l-1.86,29.78L261.73,352.3z"/>
							<g>
								<polygon class="st26" points="244.32,435.8 184.63,417.91 194.86,332.17 254.55,350.07 								"/>
								<polygon class="st26" points="256.06,437.2 318.28,433.85 328.51,348.12 266.28,351.47 								"/>
								<polygon class="st30" points="317.11,369.08 274.72,370.27 275.31,362.46 317.7,361.27 								"/>
								<path class="st30" d="M256.06,437.2l10.23-85.73l-11.73-1.4l-10.23,85.73l0,0c2.94,3.19,7.73,3.85,11.43,1.59L256.06,437.2z
									"/>
							</g>
						</g>
						<g>
							<path class="st17" d="M350.85,385.69c0,0-47.27-4.63-62.94,3.38c-10.05,5.14,25,7.13,25,7.13s-28.96,0.84-30.22,5.89
								c-1.26,5.05,34.08,6.99,34.08,6.99s-28.69,1-28.86,5.21c-0.17,4.21,31.38,4.63,31.38,4.63s-22.68,1.68-23.54,6.73
								c-0.86,5.05,47.95,8.47,59.31-8.39L350.85,385.69z"/>
						</g>
					</g>
					<path class="st15" d="M454.14,398.96c4.5-4.07,5.44-10.89,4.98-16.94c-1.72-22.5-16.51-26.8-59.58-17.41
						c-36.39,7.94-58.59,14.91-58.59,14.91s-7.91,22.7,8.79,45.03C349.74,424.56,431.3,419.62,454.14,398.96z"/>
					<path class="st14" d="M455.04,368.21c-0.18-0.32-0.37-0.64-0.58-0.98c-0.08-0.14-0.17-0.29-0.26-0.43
						c-0.22-0.36-0.44-0.74-0.68-1.12c-0.07-0.12-0.14-0.24-0.22-0.36c-0.29-0.48-0.59-0.96-0.9-1.46
						c-0.02-0.04-0.05-0.08-0.07-0.12c-1.45-2.33-3.1-4.9-4.79-7.42c0,0-0.01-0.01-0.01-0.01c-4.44,5.91-10.08,18.15-10.08,25.86
						c0,8.59,3.19,16.42,8.43,22.41c3.22-1.73,6.01-3.59,8.24-5.61c0,0,0,0,0,0c3.74-4.78,5.44-10.89,4.98-16.94v0
						c-0.05-0.62-0.1-1.22-0.17-1.82c-0.27-2.37-0.7-4.51-1.32-6.45c-0.46-1.45-1.03-2.78-1.71-4c0,0,0,0,0,0
						c-0.2-0.36-0.43-0.76-0.67-1.18C455.18,368.46,455.11,368.33,455.04,368.21z"/>
					<path class="st14" d="M431.3,359.98c-8.28,0.21-18.71,1.79-31.75,4.63c-36.39,7.94-58.59,14.91-58.59,14.91
						S408.06,375.07,431.3,359.98z"/>
				</g>
			</g>
		</g>
		<g class="st0">
			<path class="st31" d="M488.59,461.73H82.28c-27.4,0-52.64-23.63-56.18-53.24l10.83,90.6c3.25,27.2,27.35,48.93,53.63,48.93H480.3
				c26.28,0,50.38-21.73,53.63-48.93l10.83-90.6C541.22,438.1,515.98,461.73,488.59,461.73z"/>
			<text transform="matrix(1 0 0 1 120.1269 524.754)" class="st32 st33 st34">TEACHER’S DAY</text>
		</g>
	</g>
</g>
</svg>
